<svg width="48" height="48" viewBox="0 0 48 48" fill="none" xmlns="http://www.w3.org/2000/svg">
<rect width="48" height="48" rx="24" fill="#EAECFF" fill-opacity="0.6"/>
<path d="M29.8337 27.5H18.167V32.1667H29.8337V27.5Z" fill="#C4CDFF"/>
<path d="M24.0003 24C27.222 24 29.8337 21.3883 29.8337 18.1667C29.8337 14.945 27.222 12.3333 24.0003 12.3333C20.7787 12.3333 18.167 14.945 18.167 18.1667C18.167 21.3883 20.7787 24 24.0003 24Z" fill="#C4CDFF"/>
<path d="M34.4336 30.307C34.1151 28.6445 32.567 27.5 30.8741 27.5H28.64C27.5748 28.9093 25.9018 29.8333 24.0001 29.8333C22.0985 29.8333 20.4243 28.9093 19.3603 27.5H18.168C15.4333 27.5 13.8851 28.6445 13.5666 30.307C13.1373 32.5435 14.8406 34.5 17.0001 34.5H31.0001C33.1596 34.5 34.863 32.5435 34.4336 30.307Z" fill="#3C2875"/>
</svg>
