<svg width="32" height="32" viewBox="0 0 32 32" fill="none" xmlns="http://www.w3.org/2000/svg">
<rect width="32" height="32" rx="16" fill="#D6DAEE"/>
<g opacity="0.7">
<path d="M20 13.333H18.6667V15.333H19.6667C19.8667 15.333 20 15.4663 20 15.6663V20.333C20 20.533 19.8667 20.6663 19.6667 20.6663H12.3333C12.1333 20.6663 12 20.533 12 20.333V15.6663C12 15.4663 12.1333 15.333 12.3333 15.333H13.3333V13.333H12C10.8667 13.333 10 14.1997 10 15.333V20.6663C10 21.7997 10.8667 22.6663 12 22.6663H20C21.1333 22.6663 22 21.7997 22 20.6663V15.333C22 14.1997 21.1333 13.333 20 13.333Z" fill="#2C2435"/>
<path d="M18.2 11.9999C18.6 11.9999 18.8 11.5333 18.5333 11.1999L16.6 9.2666C16.2666 8.93327 15.7333 8.93327 15.4 9.2666L13.4666 11.1999C13.2 11.5333 13.4 11.9999 13.8 11.9999H18.2Z" fill="#2C2435"/>
<path d="M17.3332 17.9997V11.333H14.6665V17.9997C14.6665 18.3997 14.9332 18.6663 15.3332 18.6663H16.6665C17.0665 18.6663 17.3332 18.3997 17.3332 17.9997Z" fill="#2C2435"/>
</g>
</svg>
