<svg width="49" height="48" viewBox="0 0 49 48" fill="none" xmlns="http://www.w3.org/2000/svg">
<path d="M39.4582 7.09816L33.8682 9.33416C32.8082 9.75816 31.6162 9.70816 30.5942 9.19816L26.3162 7.06016C24.9982 6.40216 23.4362 6.46216 22.1722 7.22016L15.6202 11.1482C14.7102 11.6942 13.6202 11.8562 12.5922 11.5982L8.6862 10.6222C7.4222 10.3062 6.2002 11.2602 6.2002 12.5622V23.8422C6.2002 22.0922 8.4702 21.4042 9.4402 22.8602L11.7782 26.3662C13.0302 28.2462 15.6902 28.5082 17.2862 26.9122L22.1002 22.0982C23.4022 20.7962 25.2922 20.2722 27.0782 20.7182L30.4422 21.5582C31.5662 21.8402 32.7582 21.6622 33.7522 21.0662L38.7662 18.0582C40.2782 17.1542 42.2002 18.2422 42.2002 20.0042V8.95416C42.2002 7.54016 40.7702 6.57216 39.4582 7.09816Z" fill="#3E4177"/>
<path opacity="0.35" d="M36.2002 42H12.2002C8.8862 42 6.2002 39.314 6.2002 36V23.842C6.2002 22.092 8.4702 21.404 9.4402 22.86L11.7782 26.366C13.0302 28.246 15.6902 28.508 17.2862 26.912L22.1002 22.098C23.4022 20.796 25.2922 20.272 27.0782 20.718L30.4422 21.558C31.5682 21.84 32.7582 21.662 33.7522 21.066L38.7662 18.058C40.2782 17.154 42.2002 18.242 42.2002 20.004V36C42.2002 39.314 39.5142 42 36.2002 42Z" fill="#0585E2"/>
</svg>
