<svg width="18" height="19" viewBox="0 0 18 19" fill="none" xmlns="http://www.w3.org/2000/svg">
<path d="M6.7396 2.74122C6.55306 2.74126 6.37077 2.79695 6.21605 2.90117C6.06133 3.00538 5.94121 3.15338 5.87106 3.32624C5.80091 3.49909 5.78392 3.68894 5.82226 3.87151C5.8606 4.05407 5.95253 4.22105 6.08628 4.35108L11.2352 9.5L6.08628 14.6489C5.99913 14.7361 5.92999 14.8395 5.88282 14.9534C5.83565 15.0672 5.81136 15.1893 5.81136 15.3125C5.81135 15.4358 5.83562 15.5578 5.88278 15.6717C5.92994 15.7855 5.99907 15.889 6.08622 15.9761C6.17337 16.0633 6.27683 16.1324 6.39069 16.1796C6.50455 16.2267 6.62659 16.251 6.74984 16.251C6.87308 16.251 6.99512 16.2267 7.10898 16.1795C7.22284 16.1324 7.32629 16.0632 7.41343 15.9761L13.2259 10.1636C13.3132 10.0765 13.3824 9.97306 13.4296 9.85919C13.4768 9.74533 13.5011 9.62327 13.5011 9.5C13.5011 9.37674 13.4768 9.25468 13.4296 9.14081C13.3824 9.02695 13.3132 8.92352 13.2259 8.83643L7.41343 3.02393C7.32576 2.9341 7.22094 2.86279 7.10519 2.81423C6.98945 2.76566 6.86513 2.74083 6.7396 2.74122Z" fill="#443852"/>
</svg>
