<svg width="30" height="30" viewBox="0 0 30 30" fill="none" xmlns="http://www.w3.org/2000/svg">
<path d="M22.5 23.75H5C2.92875 23.75 1.25 22.0713 1.25 20V7.5C1.25 5.42875 2.92875 3.75 5 3.75H22.5C24.5713 3.75 26.25 5.42875 26.25 7.5V20C26.25 22.0713 24.5713 23.75 22.5 23.75Z" fill="#97CAA3"/>
<path d="M26.0751 6.42505C26.1776 6.76755 26.25 7.1238 26.25 7.50005V20C26.25 22.0713 24.5713 23.75 22.5 23.75H5.00005C4.6238 23.75 4.26755 23.6776 3.92505 23.5751C4.39005 25.1188 5.80505 26.25 7.50005 26.25H25C27.0713 26.25 28.75 24.5713 28.75 22.5V10C28.75 8.30505 27.6188 6.89005 26.0751 6.42505Z" fill="#5137B9"/>
<path d="M26.25 7.5H1.25V11.25H26.25V7.5Z" fill="#5137B9"/>
</svg>
