<svg width="13" height="12" viewBox="0 0 13 12" fill="none" xmlns="http://www.w3.org/2000/svg">
<g id="icons8-camera 1" clip-path="url(#clip0_24169_806)">
<path id="Vector" d="M5.47127 0.458328C5.00507 0.458328 4.57241 0.706809 4.33765 1.10945L3.69678 2.20833H2.56258C1.52077 2.20833 0.666748 3.06235 0.666748 4.10416V9.64583C0.666748 10.6876 1.52077 11.5417 2.56258 11.5417H10.4376C11.4794 11.5417 12.3334 10.6876 12.3334 9.64583V4.10416C12.3334 3.06235 11.4794 2.20833 10.4376 2.20833H9.30338L8.66252 1.10945C8.42775 0.706809 7.99509 0.458328 7.52889 0.458328H5.47127ZM5.47127 1.33333H7.52889C7.68511 1.33333 7.82809 1.41576 7.90658 1.55037L8.67448 2.86629C8.71299 2.9323 8.76813 2.98707 8.83439 3.02515C8.90066 3.06323 8.97574 3.08329 9.05216 3.08333H10.4376C11.0063 3.08333 11.4584 3.53539 11.4584 4.10416V9.64583C11.4584 10.2146 11.0063 10.6667 10.4376 10.6667H2.56258C1.99381 10.6667 1.54175 10.2146 1.54175 9.64583V4.10416C1.54175 3.53539 1.99381 3.08333 2.56258 3.08333H3.948C4.02442 3.08329 4.09951 3.06323 4.16577 3.02515C4.23203 2.98707 4.28717 2.9323 4.32568 2.86629L5.09359 1.55037C5.17207 1.41576 5.31505 1.33333 5.47127 1.33333ZM6.50008 3.95833C5.05552 3.95833 3.87508 5.13876 3.87508 6.58333C3.87508 8.02789 5.05552 9.20833 6.50008 9.20833C7.94465 9.20833 9.12508 8.02789 9.12508 6.58333C9.12508 5.13876 7.94465 3.95833 6.50008 3.95833ZM6.50008 4.83333C7.47176 4.83333 8.25008 5.61165 8.25008 6.58333C8.25008 7.55501 7.47176 8.33333 6.50008 8.33333C5.5284 8.33333 4.75008 7.55501 4.75008 6.58333C4.75008 5.61165 5.5284 4.83333 6.50008 4.83333Z" fill="white"/>
</g>
<defs>
<clipPath id="clip0_24169_806">
<rect width="12" height="12" fill="white" transform="translate(0.5)"/>
</clipPath>
</defs>
</svg>
