<svg width="49" height="48" viewBox="0 0 49 48" fill="none" xmlns="http://www.w3.org/2000/svg">
<path opacity="0.35" d="M36.6001 38H8.6001C5.2861 38 2.6001 35.314 2.6001 32V12C2.6001 8.686 5.2861 6 8.6001 6H36.6001C39.9141 6 42.6001 8.686 42.6001 12V32C42.6001 35.314 39.9141 38 36.6001 38Z" fill="#7160A2"/>
<path d="M42.3199 10.2798C42.4839 10.8278 42.5999 11.3978 42.5999 11.9998V31.9998C42.5999 35.3138 39.9139 37.9998 36.5999 37.9998H8.59988C7.99788 37.9998 7.42788 37.8838 6.87988 37.7198C7.62388 40.1898 9.88788 41.9998 12.5999 41.9998H40.5999C43.9139 41.9998 46.5999 39.3138 46.5999 35.9998V15.9998C46.5999 13.2878 44.7899 11.0238 42.3199 10.2798Z" fill="#373B4F"/>
<path d="M42.6001 12H2.6001V18H42.6001V12Z" fill="#373B4F"/>
</svg>
