<svg width="40" height="40" viewBox="0 0 40 40" fill="none" xmlns="http://www.w3.org/2000/svg">
<path opacity="0.35" d="M31.6667 33.3333H8.33337C5.57171 33.3333 3.33337 31.095 3.33337 28.3333V11.6666C3.33337 8.90496 5.57171 6.66663 8.33337 6.66663H31.6667C34.4284 6.66663 36.6667 8.90496 36.6667 11.6666V28.3333C36.6667 31.095 34.4284 33.3333 31.6667 33.3333Z" fill="#6BCDE9"/>
<path d="M17.3333 25C17.0233 25 15.9767 25 15.6667 25C14.7467 25 14 25.7467 14 26.6667C14 27.5867 14.7467 28.3333 15.6667 28.3333C15.9767 28.3333 17.0233 28.3333 17.3333 28.3333C18.2533 28.3333 19 27.5867 19 26.6667C19 25.7467 18.2533 25 17.3333 25Z" fill="#6B75E9"/>
<path d="M9.99996 25C9.68996 25 8.64329 25 8.33329 25C7.41329 25 6.66663 25.7467 6.66663 26.6667C6.66663 27.5867 7.41329 28.3333 8.33329 28.3333C8.64329 28.3333 9.68996 28.3333 9.99996 28.3333C10.92 28.3333 11.6666 27.5867 11.6666 26.6667C11.6666 25.7467 10.92 25 9.99996 25Z" fill="#6B75E9"/>
<path d="M13.3333 14.6667C13.3333 13.7467 12.5866 13 11.6666 13C11.3566 13 8.64329 13 8.33329 13C7.41329 13 6.66663 13.7467 6.66663 14.6667C6.66663 14.9767 6.66663 17.69 6.66663 18C6.66663 18.92 7.41329 19.6667 8.33329 19.6667C8.64329 19.6667 11.3566 19.6667 11.6666 19.6667C12.5866 19.6667 13.3333 18.92 13.3333 18C13.3333 17.69 13.3333 14.9767 13.3333 14.6667Z" fill="#6B75E9"/>
<path d="M24.3333 25C24.0233 25 22.9767 25 22.6667 25C21.7467 25 21 25.7467 21 26.6667C21 27.5867 21.7467 28.3333 22.6667 28.3333C22.9767 28.3333 24.0233 28.3333 24.3333 28.3333C25.2533 28.3333 26 27.5867 26 26.6667C26 25.7467 25.2533 25 24.3333 25Z" fill="#6B75E9"/>
<path d="M26.6667 15C26.3567 15 16.9767 15 16.6667 15C15.7467 15 15 15.7467 15 16.6667C15 17.5867 15.7467 18.3333 16.6667 18.3333C16.9767 18.3333 26.3567 18.3333 26.6667 18.3333C27.5867 18.3333 28.3333 17.5867 28.3333 16.6667C28.3333 15.7467 27.5867 15 26.6667 15Z" fill="#6B75E9"/>
<path d="M30 25C29.69 25 28.6433 25 28.3333 25C27.4133 25 26.6666 25.7467 26.6666 26.6667C26.6666 27.5867 27.4133 28.3333 28.3333 28.3333C28.6433 28.3333 29.69 28.3333 30 28.3333C30.92 28.3333 31.6666 27.5867 31.6666 26.6667C31.6666 25.7467 30.92 25 30 25Z" fill="#6B75E9"/>
</svg>
