<svg width="30" height="30" viewBox="0 0 30 30" fill="none" xmlns="http://www.w3.org/2000/svg">
<path d="M26.25 19.375C26.25 18.34 25.41 17.5 24.375 17.5C23.34 17.5 22.5 18.34 22.5 19.375C22.5 19.595 22.5 21.875 22.5 21.875C22.5 22.22 22.22 22.5 21.875 22.5H8.125C7.78 22.5 7.5 22.22 7.5 21.875C7.5 21.875 7.5 19.595 7.5 19.375C7.5 18.34 6.66 17.5 5.625 17.5C4.59 17.5 3.75 18.34 3.75 19.375C3.75 19.595 3.75 22.5 3.75 22.5C3.75 24.5712 5.42875 26.25 7.5 26.25H22.5C24.5712 26.25 26.25 24.5712 26.25 22.5C26.25 22.5 26.25 19.595 26.25 19.375Z" fill="#DFBAFF"/>
<path d="M17.6976 17.5C18.2014 17.5 18.4539 18.1075 18.1001 18.465L15.5826 21.0075C15.2626 21.3312 14.7389 21.3312 14.4189 21.0075L11.9001 18.465C11.5464 18.1075 11.7989 17.5 12.3026 17.5H17.6976Z" fill="#94D3FF"/>
<path opacity="0.35" d="M15 14.375C18.1066 14.375 20.625 11.8566 20.625 8.75C20.625 5.6434 18.1066 3.125 15 3.125C11.8934 3.125 9.375 5.6434 9.375 8.75C9.375 11.8566 11.8934 14.375 15 14.375Z" fill="#94D3FF"/>
<path d="M15 2.5C11.55 2.5 8.75 5.3 8.75 8.75C8.75 12.2 11.55 15 15 15C18.45 15 21.25 12.2 21.25 8.75C21.25 5.3 18.45 2.5 15 2.5ZM16.1625 12.125C16.1625 12.6625 15.7375 13.0875 15.2 13.0875C14.6625 13.0875 14.2375 12.6625 14.2375 12.125V6.6875L13.725 7.075C13.3 7.4 12.7125 7.275 12.45 6.825C12.375 6.6875 12.3375 6.5375 12.3375 6.3875C12.3375 6.125 12.4625 5.8625 12.6875 5.7L14.1 4.6625C14.325 4.5 14.6 4.4125 14.875 4.4125C15.5875 4.4125 16.1625 4.9875 16.1625 5.7V12.125Z" fill="#94D3FF"/>
</svg>
