<svg width="16" height="17" viewBox="0 0 16 17" fill="none" xmlns="http://www.w3.org/2000/svg">
<path d="M13.6665 7.29301H11.7398C10.1598 7.29301 8.87317 6.00634 8.87317 4.42634V2.49967C8.87317 2.13301 8.57317 1.83301 8.2065 1.83301H5.37984C3.3265 1.83301 1.6665 3.16634 1.6665 5.54634V11.453C1.6665 13.833 3.3265 15.1663 5.37984 15.1663H10.6198C12.6732 15.1663 14.3332 13.833 14.3332 11.453V7.95967C14.3332 7.59301 14.0332 7.29301 13.6665 7.29301ZM8.1865 11.0197L6.85317 12.353C6.8065 12.3997 6.7465 12.4397 6.6865 12.4597C6.6265 12.4863 6.5665 12.4997 6.49984 12.4997C6.43317 12.4997 6.37317 12.4863 6.31317 12.4597C6.25984 12.4397 6.2065 12.3997 6.1665 12.3597C6.15984 12.353 6.15317 12.353 6.15317 12.3463L4.81984 11.013C4.6265 10.8197 4.6265 10.4997 4.81984 10.3063C5.01317 10.113 5.33317 10.113 5.5265 10.3063L5.99984 10.793V7.99967C5.99984 7.72634 6.2265 7.49967 6.49984 7.49967C6.77317 7.49967 6.99984 7.72634 6.99984 7.99967V10.793L7.47984 10.313C7.67317 10.1197 7.99317 10.1197 8.1865 10.313C8.37984 10.5063 8.37984 10.8263 8.1865 11.0197Z" fill="#6F5B86"/>
<path d="M11.62 6.37365C12.2533 6.38032 13.1333 6.38032 13.8866 6.38032C14.2666 6.38032 14.4666 5.93365 14.2 5.66699C13.24 4.70032 11.52 2.96032 10.5333 1.97365C10.26 1.70032 9.78662 1.88699 9.78662 2.26699V4.59365C9.78662 5.56699 10.6133 6.37365 11.62 6.37365Z" fill="#6F5B86"/>
</svg>
