<svg width="40" height="40" viewBox="0 0 40 40" fill="none" xmlns="http://www.w3.org/2000/svg">
<path opacity="0.35" d="M19.665 36.83C28.8688 36.83 36.33 29.3688 36.33 20.165C36.33 10.9612 28.8688 3.5 19.665 3.5C10.4612 3.5 3 10.9612 3 20.165C3 29.3688 10.4612 36.83 19.665 36.83Z" fill="#E4DF7C"/>
<path d="M24.6191 23.6747C24.6191 18.2794 18.6635 19.0169 18.6635 16.2046C18.6635 14.5486 19.9654 14.3736 20.4154 14.3736C20.8591 14.3736 21.2528 14.4798 21.5861 14.6298C22.3694 14.9839 23.2984 14.6548 23.7942 13.9528C24.4296 13.0529 24.1004 11.7884 23.0964 11.3364C22.5464 11.0885 21.859 10.8885 21.0258 10.8093V10.0261C21.0258 9.30533 20.4404 8.71997 19.7196 8.71997C18.9989 8.71997 18.4135 9.30533 18.4135 10.0261V11.0843C16.2283 11.8134 14.8076 13.8132 14.8076 16.3734C14.8076 22.0353 20.6904 21.0125 20.6904 23.9559C20.6904 24.5226 20.4216 25.7579 18.9635 25.7579C18.3156 25.7579 17.7552 25.5745 17.299 25.3371C16.5262 24.9329 15.5659 25.2308 15.0722 25.9516L15.0201 26.0287C14.4493 26.8619 14.6806 28.0285 15.5575 28.5263C16.295 28.945 17.197 29.27 18.2864 29.3846V30.3011C18.2864 31.0219 18.8718 31.6073 19.5926 31.6073C20.3133 31.6073 20.8987 31.0219 20.8987 30.3011V29.1492C23.3172 28.4097 24.6191 26.2057 24.6191 23.6747Z" fill="#ECBD45"/>
</svg>
