<svg width="29" height="30" viewBox="0 0 29 30" fill="none" xmlns="http://www.w3.org/2000/svg">
<path d="M7.20128 8.99997C6.81368 8.99997 6.43208 8.81276 6.20168 8.46596C5.83328 7.91396 5.98208 7.16997 6.53408 6.80157L10.1341 4.40156C10.4641 4.17956 10.8805 4.13876 11.2453 4.28516L16.5109 6.39117L19.5517 3.35156C20.0209 2.88236 20.7793 2.88236 21.2485 3.35156C21.7177 3.82076 21.7177 4.57916 21.2485 5.04836L17.6485 8.64836C17.3089 8.98796 16.7989 9.08996 16.3549 8.91476L10.9405 6.74876L7.86608 8.79836C7.66088 8.93396 7.42928 8.99997 7.20128 8.99997Z" fill="#5215B6"/>
<path opacity="0.35" d="M24.0002 11.4H4.80015C3.47415 11.4 2.40015 12.474 2.40015 13.8V23.4C2.40015 24.726 3.47415 25.8 4.80015 25.8H24.0002C25.3262 25.8 26.4002 24.726 26.4002 23.4V13.8C26.4002 12.474 25.3262 11.4 24.0002 11.4Z" fill="#5215B6"/>
<path d="M14.4002 23.4C16.7198 23.4 18.6002 21.2509 18.6002 18.6C18.6002 15.949 16.7198 13.8 14.4002 13.8C12.0806 13.8 10.2002 15.949 10.2002 18.6C10.2002 21.2509 12.0806 23.4 14.4002 23.4Z" fill="#5215B6"/>
<path d="M22.8002 19.8C23.463 19.8 24.0002 19.2627 24.0002 18.6C24.0002 17.9372 23.463 17.4 22.8002 17.4C22.1375 17.4 21.6002 17.9372 21.6002 18.6C21.6002 19.2627 22.1375 19.8 22.8002 19.8Z" fill="#5215B6"/>
<path d="M6.00017 19.8C6.66291 19.8 7.20017 19.2627 7.20017 18.6C7.20017 17.9372 6.66291 17.4 6.00017 17.4C5.33743 17.4 4.80017 17.9372 4.80017 18.6C4.80017 19.2627 5.33743 19.8 6.00017 19.8Z" fill="#5215B6"/>
<path d="M22.8002 2.40476C22.8014 2.06996 22.5302 1.79876 22.1954 1.79996L18.5462 1.81676C18.0602 1.81916 17.8178 2.40716 18.1622 2.75156L21.8498 6.43916C22.1942 6.78356 22.7822 6.54116 22.7846 6.05516L22.8002 2.40476Z" fill="#5215B6"/>
</svg>
