<svg width="24" height="25" viewBox="0 0 24 25" fill="none" xmlns="http://www.w3.org/2000/svg">
<path d="M19.1704 4.1946C19.4631 3.90909 19.9217 3.90909 20.2046 4.1946C20.4974 4.48011 20.4974 4.95267 20.2046 5.23818L18.4288 7.02998C19.8436 8.32954 21.0438 10.082 21.9415 12.1888C22.0195 12.3759 22.0195 12.5925 21.9415 12.7697C19.8534 17.6725 16.1358 20.6064 11.9987 20.6064H11.9889C10.1058 20.6064 8.30063 19.9861 6.71018 18.8539L4.81725 20.7639C4.67089 20.9116 4.4855 20.9805 4.30011 20.9805C4.11472 20.9805 3.91957 20.9116 3.78297 20.7639C3.53903 20.5177 3.5 20.1239 3.69515 19.8384L3.72442 19.7991L18.1556 5.23818C18.1751 5.21849 18.1946 5.1988 18.2044 5.17911C18.2239 5.15942 18.2434 5.13973 18.2532 5.12004L19.1704 4.1946ZM12.0013 4.36581C13.3966 4.36581 14.7529 4.70054 16.0018 5.33062L12.7429 8.61888C12.5087 8.5795 12.255 8.54997 12.0013 8.54997C9.84494 8.54997 8.09836 10.3122 8.09836 12.488C8.09836 12.744 8.12764 12.9999 8.16667 13.2362L4.55643 16.8789C3.5807 15.7369 2.7318 14.3586 2.05854 12.7735C1.98049 12.5963 1.98049 12.3797 2.05854 12.1926C4.14662 7.2898 7.86419 4.36581 11.9916 4.36581H12.0013ZM15.2186 10.269L14.1551 11.3421C14.3307 11.6769 14.4283 12.0707 14.4283 12.4842C14.4283 13.8329 13.3354 14.9356 11.9987 14.9356C11.5889 14.9356 11.1986 14.8371 10.8668 14.6599L9.80327 15.733C10.4277 16.1564 11.1888 16.4123 11.9987 16.4123C14.1453 16.4123 15.8919 14.6501 15.8919 12.4842C15.8919 11.667 15.6382 10.8991 15.2186 10.269Z" fill="#CECECE"/>
</svg>
