<svg width="24" height="25" viewBox="0 0 24 25" fill="none" xmlns="http://www.w3.org/2000/svg">
<path d="M21.25 9.63016C18.94 6.00016 15.56 3.91016 12 3.91016C10.22 3.91016 8.49 4.43016 6.91 5.40016C5.33 6.38016 3.91 7.81016 2.75 9.63016C1.75 11.2002 1.75 13.7502 2.75 15.3202C5.06 18.9602 8.44 21.0402 12 21.0402C13.78 21.0402 15.51 20.5202 17.09 19.5502C18.67 18.5702 20.09 17.1402 21.25 15.3202C22.25 13.7602 22.25 11.2002 21.25 9.63016ZM12 16.5202C9.76 16.5202 7.96 14.7102 7.96 12.4802C7.96 10.2502 9.76 8.44016 12 8.44016C14.24 8.44016 16.04 10.2502 16.04 12.4802C16.04 14.7102 14.24 16.5202 12 16.5202Z" fill="#CECECE"/>
<path d="M11.9999 9.62109C10.4299 9.62109 9.1499 10.9011 9.1499 12.4811C9.1499 14.0511 10.4299 15.3311 11.9999 15.3311C13.5699 15.3311 14.8599 14.0511 14.8599 12.4811C14.8599 10.9111 13.5699 9.62109 11.9999 9.62109Z" fill="#CECECE"/>
</svg>
