<svg width="24" height="24" viewBox="0 0 24 24" fill="none" xmlns="http://www.w3.org/2000/svg">
<path opacity="0.75" d="M18 21H6C4.343 21 3 19.657 3 18V6C3 4.343 4.343 3 6 3H18C19.657 3 21 4.343 21 6V18C21 19.657 19.657 21 18 21Z" fill="#003A90"/>
<path d="M12.6211 21.0001V14.0391H10.2781V11.3141H12.6211V9.3091C12.6211 6.9851 14.0421 5.7181 16.1161 5.7181C16.8151 5.7161 17.5131 5.7521 18.2081 5.8231V8.2531H16.7801C15.6501 8.2531 15.4301 8.7871 15.4301 9.5751V11.3101H18.1301L17.7791 14.0351H15.4141V21.0001H12.6211Z" fill="white"/>
</svg>
