<svg width="40" height="41" viewBox="0 0 40 41" fill="none" xmlns="http://www.w3.org/2000/svg">
<path d="M6.6665 32.1468V8.81348C6.6665 6.05181 8.90484 3.81348 11.6665 3.81348H23.3332L33.3332 13.8135V32.1468C33.3332 34.9085 31.0948 37.1468 28.3332 37.1468H11.6665C8.90484 37.1468 6.6665 34.9085 6.6665 32.1468Z" fill="#95C0FF"/>
<path d="M23.3335 10.4801V3.81348L33.3335 13.8135H26.6668C24.8252 13.8135 23.3335 12.3218 23.3335 10.4801Z" fill="#3266EA"/>
<path d="M19.9998 23.8133H13.3332C12.4115 23.8133 11.6665 23.0666 11.6665 22.1466C11.6665 21.2266 12.4115 20.48 13.3332 20.48H19.9998C20.9215 20.48 21.6665 21.2266 21.6665 22.1466C21.6665 23.0666 20.9215 23.8133 19.9998 23.8133Z" fill="#3266EA"/>
<path d="M19.9998 30.4798H13.3332C12.4115 30.4798 11.6665 29.7332 11.6665 28.8132C11.6665 27.8932 12.4115 27.1465 13.3332 27.1465H19.9998C20.9215 27.1465 21.6665 27.8932 21.6665 28.8132C21.6665 29.7332 20.9215 30.4798 19.9998 30.4798Z" fill="#3266EA"/>
<path d="M26.6667 23.8133C27.5871 23.8133 28.3333 23.0671 28.3333 22.1466C28.3333 21.2262 27.5871 20.48 26.6667 20.48C25.7462 20.48 25 21.2262 25 22.1466C25 23.0671 25.7462 23.8133 26.6667 23.8133Z" fill="#3266EA"/>
<path d="M26.6667 30.4798C27.5871 30.4798 28.3333 29.7336 28.3333 28.8132C28.3333 27.8927 27.5871 27.1465 26.6667 27.1465C25.7462 27.1465 25 27.8927 25 28.8132C25 29.7336 25.7462 30.4798 26.6667 30.4798Z" fill="#3266EA"/>
</svg>
