<svg width="16" height="16" viewBox="0 0 16 16" fill="none" xmlns="http://www.w3.org/2000/svg">
<path d="M5.99043 1.99219C5.82462 1.99223 5.66258 2.04174 5.52505 2.13437C5.38752 2.22701 5.28075 2.35856 5.2184 2.51221C5.15604 2.66586 5.14094 2.83462 5.17502 2.99689C5.2091 3.15917 5.29081 3.3076 5.4097 3.42318L9.98653 8L5.4097 12.5768C5.33223 12.6543 5.27078 12.7462 5.22885 12.8475C5.18692 12.9487 5.16533 13.0571 5.16533 13.1667C5.16532 13.2762 5.18689 13.3847 5.22881 13.4859C5.27073 13.5871 5.33218 13.6791 5.40965 13.7566C5.48711 13.834 5.57907 13.8955 5.68029 13.9374C5.7815 13.9793 5.88998 14.0009 5.99953 14.0009C6.10908 14.0009 6.21756 13.9793 6.31877 13.9374C6.41998 13.8954 6.51194 13.834 6.58939 13.7565L11.7561 8.58985C11.8336 8.51244 11.8951 8.4205 11.9371 8.31928C11.9791 8.21807 12.0007 8.10958 12.0007 8C12.0007 7.89043 11.9791 7.78194 11.9371 7.68072C11.8951 7.57951 11.8336 7.48757 11.7561 7.41016L6.58939 2.24349C6.51146 2.16364 6.41829 2.10026 6.3154 2.05709C6.21252 2.01392 6.10201 1.99185 5.99043 1.99219Z" fill="#D0C8D9"/>
</svg>
