<svg width="49" height="48" viewBox="0 0 49 48" fill="none" xmlns="http://www.w3.org/2000/svg">
<path opacity="0.35" d="M24.5 11.9995C23.988 11.9995 23.476 11.8035 23.086 11.4135L19.086 7.41352C18.304 6.63152 18.304 5.36752 19.086 4.58552C19.868 3.80352 21.132 3.80352 21.914 4.58552L24.5 7.17152L27.086 4.58552C27.868 3.80352 29.132 3.80352 29.914 4.58552C30.696 5.36752 30.696 6.63152 29.914 7.41352L25.914 11.4135C25.524 11.8035 25.012 11.9995 24.5 11.9995Z" fill="#792D3D"/>
<path opacity="0.35" d="M14.1079 17.9999C13.8519 18.4439 13.4259 18.7879 12.8939 18.9319L7.4299 20.3959C6.3599 20.6819 5.2659 20.0499 4.9799 18.9819C4.6939 17.9139 5.3259 16.8179 6.3939 16.5319L9.9259 15.5859L8.9799 12.0539C8.6939 10.9859 9.3259 9.88993 10.3939 9.60393C11.4619 9.31793 12.5559 9.94993 12.8439 11.0179L14.3079 16.4819C14.4499 17.0159 14.3639 17.5559 14.1079 17.9999Z" fill="#792D3D"/>
<path opacity="0.35" d="M14.1079 29.9999C14.3639 30.4439 14.4499 30.9839 14.3079 31.5179L12.8439 36.9819C12.5579 38.0499 11.4639 38.6819 10.3939 38.3959C9.3239 38.1099 8.6939 37.0159 8.9799 35.9459L9.9259 32.4139L6.3939 31.4679C5.3259 31.1819 4.6939 30.0879 4.9799 29.0179C5.2659 27.9499 6.3599 27.3179 7.4299 27.6039L12.8939 29.0679C13.4259 29.2119 13.8519 29.5559 14.1079 29.9999Z" fill="#792D3D"/>
<path opacity="0.35" d="M24.5 36C25.012 36 25.524 36.196 25.914 36.586L29.914 40.586C30.696 41.368 30.696 42.632 29.914 43.414C29.132 44.196 27.868 44.196 27.086 43.414L24.5 40.828L21.914 43.414C21.132 44.196 19.868 44.196 19.086 43.414C18.304 42.632 18.304 41.368 19.086 40.586L23.086 36.586C23.476 36.196 23.988 36 24.5 36Z" fill="#792D3D"/>
<path opacity="0.35" d="M34.892 29.9999C35.148 29.5559 35.574 29.2119 36.106 29.0679L41.57 27.6039C42.638 27.3179 43.732 27.9499 44.02 29.0179C44.308 30.0859 43.674 31.1799 42.606 31.4679L39.074 32.4139L40.02 35.9459C40.306 37.0139 39.674 38.1079 38.606 38.3959C37.538 38.6819 36.444 38.0499 36.156 36.9819L34.692 31.5179C34.55 30.9839 34.636 30.4439 34.892 29.9999Z" fill="#792D3D"/>
<path opacity="0.35" d="M34.892 17.9999C34.636 17.5559 34.55 17.0159 34.692 16.4819L36.156 11.0179C36.442 9.94993 37.536 9.31793 38.606 9.60393C39.674 9.88993 40.306 10.9839 40.02 12.0539L39.074 15.5859L42.606 16.5319C43.674 16.8179 44.306 17.9119 44.02 18.9819C43.734 20.0499 42.64 20.6819 41.57 20.3959L36.106 18.9319C35.574 18.7879 35.148 18.4439 34.892 17.9999Z" fill="#792D3D"/>
<path d="M26.5 4V15.86L25.5 15.28C24.88 14.9 24.12 14.9 23.5 15.28L22.5 15.86V4C22.5 2.9 23.4 2 24.5 2C25.6 2 26.5 2.9 26.5 4Z" fill="#AB316D"/>
<path d="M26.5 32.1396V43.9996C26.5 45.0996 25.6 45.9996 24.5 45.9996C23.4 45.9996 22.5 45.0996 22.5 43.9996V32.1396L23.5 32.7197C23.8 32.8997 24.16 32.9996 24.5 32.9996C24.84 32.9996 25.2 32.8997 25.5 32.7197L26.5 32.1396Z" fill="#AB316D"/>
<path opacity="0.55" d="M24.5 33C24.152 33 23.802 32.91 23.492 32.728L17.492 29.228C16.876 28.87 16.5 28.21 16.5 27.5V20.5C16.5 19.79 16.876 19.13 17.492 18.772L23.492 15.272C24.114 14.908 24.886 14.908 25.508 15.272L31.508 18.772C32.124 19.13 32.5 19.79 32.5 20.5V27.5C32.5 28.21 32.124 28.87 31.508 29.228L25.508 32.728C25.198 32.91 24.848 33 24.5 33ZM20.5 26.352L24.5 28.686L28.5 26.352V21.648L24.5 19.314L20.5 21.648V26.352Z" fill="#8F026E"/>
<path d="M44.2399 34.9796C43.8799 35.6196 43.1999 35.9996 42.4999 35.9996C42.1599 35.9996 41.8399 35.9197 41.5199 35.7397L30.6599 29.6996L31.4999 29.2196C32.1199 28.8596 32.4999 28.2196 32.4999 27.4996V26.1396L43.4799 32.2596C44.4399 32.7796 44.7799 33.9996 44.2399 34.9796Z" fill="#AB316D"/>
<path d="M18.34 18.2995L17.5 18.7795C16.88 19.1395 16.5 19.7795 16.5 20.4995V21.8595L5.52001 15.7395C4.56001 15.2195 4.22001 13.9995 4.76001 13.0195C5.28001 12.0595 6.50001 11.7195 7.48001 12.2595L18.34 18.2995Z" fill="#AB316D"/>
<path d="M43.4799 15.7395L32.4999 21.8395V20.4995C32.4999 19.7795 32.1199 19.1395 31.4999 18.7795L30.6599 18.2995L41.5199 12.2595C42.4999 11.7195 43.7199 12.0595 44.2399 13.0195C44.7799 13.9995 44.4399 15.2195 43.4799 15.7395Z" fill="#AB316D"/>
<path d="M18.34 29.6996L7.48001 35.7397C7.16001 35.9197 6.84001 35.9996 6.50001 35.9996C5.80001 35.9996 5.12001 35.6196 4.76001 34.9796C4.22001 33.9996 4.56001 32.7796 5.52001 32.2596L16.5 26.1396V27.4996C16.5 28.2196 16.88 28.8596 17.5 29.2196L18.34 29.6996Z" fill="#AB316D"/>
</svg>
