<svg width="30" height="30" viewBox="0 0 30 30" fill="none" xmlns="http://www.w3.org/2000/svg">
<g opacity="0.35">
<path d="M15 26.25C21.2132 26.25 26.25 21.2132 26.25 15C26.25 8.7868 21.2132 3.75 15 3.75C8.7868 3.75 3.75 8.7868 3.75 15C3.75 21.2132 8.7868 26.25 15 26.25Z" fill="#5DC5C0"/>
</g>
<path d="M27.4875 19.1575C27.3662 18.13 26.4375 17.3963 25.4075 17.5125C24.175 17.6563 23.0175 17.6688 21.925 17.5788C21.36 16.7775 20.4312 16.25 19.375 16.25C18.8125 16.25 18.2912 16.41 17.835 16.6713C17.1875 16.4313 16.585 16.1425 16.0038 15.835C16.9913 15.2163 17.9825 14.5188 18.9487 13.7075C19.09 13.7263 19.2288 13.75 19.375 13.75C21.1012 13.75 22.5 12.3513 22.5 10.625C22.5 10.445 22.4762 10.2725 22.4475 10.1013C23.2125 9.12878 23.9338 8.06753 24.5863 6.89753C25.0913 5.99253 24.7675 4.85128 23.8625 4.34753C22.9613 3.84253 21.8175 4.16503 21.3125 5.07128C20.8125 5.96753 20.2513 6.77003 19.665 7.53003C19.5675 7.52003 19.475 7.50003 19.375 7.50003C17.6488 7.50003 16.25 8.89878 16.25 10.625C16.25 10.7463 16.2725 10.8613 16.2863 10.9788C16.1263 11.1063 15.9675 11.2413 15.8063 11.3625C15.695 11.4475 15.5825 11.525 15.47 11.6063C14.5063 12.3038 13.5238 12.8975 12.5538 13.4075C9.07125 10.265 7.48375 6.47003 7.3675 6.18003C6.98375 5.21753 5.89375 4.75378 4.93375 5.13128C3.97125 5.51378 3.5 6.60378 3.88125 7.56753C3.9125 7.64378 5.4725 11.42 8.9125 15.0075C6.20125 15.9763 4.1825 16.2588 4.13875 16.265V16.27C3.13375 16.3975 2.40625 17.2988 2.50875 18.3125C2.60625 19.2788 3.42125 20 4.3725 20C4.435 20 4.49875 19.9975 4.56125 19.99C4.57 19.9888 4.59125 19.9863 4.6075 19.985L4.61375 19.9838C5.095 19.9313 8.29 19.5238 12.1838 17.84C13.42 18.7125 14.7975 19.4963 16.3412 20.0988C16.6713 21.475 17.9 22.5 19.375 22.5C20.3587 22.5 21.225 22.0363 21.7975 21.3263C22.2887 21.3638 22.7887 21.3875 23.3025 21.3875C24.1187 21.3875 24.9663 21.3388 25.8413 21.2375C26.87 21.1175 27.6075 20.1863 27.4875 19.1575Z" fill="#4BA897"/>
</svg>
