<svg width="32" height="32" viewBox="0 0 32 32" fill="none" xmlns="http://www.w3.org/2000/svg">
<circle cx="16" cy="16" r="16" fill="#EBEDF4"/>
<path d="M15.9974 10.4585C13.8207 10.4585 11.8195 11.4543 10.4597 12.9884C10.4061 13.0452 10.3645 13.1122 10.3373 13.1855C10.3101 13.2587 10.2979 13.3366 10.3014 13.4147C10.3049 13.4927 10.324 13.5693 10.3576 13.6398C10.3913 13.7103 10.4387 13.7733 10.4972 13.8251C10.5556 13.877 10.6239 13.9165 10.698 13.9414C10.772 13.9664 10.8503 13.9762 10.9282 13.9703C11.0061 13.9644 11.082 13.9429 11.1514 13.9071C11.2209 13.8714 11.2824 13.822 11.3324 13.762C12.4809 12.4663 14.1782 11.6252 15.9974 11.6252C17.8165 11.6252 19.5166 12.4666 20.668 13.7625C20.7708 13.8783 20.9153 13.9484 21.0697 13.9576C21.2242 13.9668 21.376 13.9143 21.4918 13.8115C21.6075 13.7088 21.6777 13.5643 21.6869 13.4098C21.696 13.2553 21.6435 13.1035 21.5407 12.9878C20.178 11.4539 18.1741 10.4585 15.9974 10.4585ZM11.2145 15.7005C11.1232 15.6983 11.0326 15.7175 10.95 15.7566C10.8675 15.7958 10.7953 15.8538 10.7392 15.9259C10.6832 15.9981 10.6449 16.0824 10.6274 16.1721C10.6099 16.2618 10.6137 16.3543 10.6386 16.4422C10.7809 16.9761 11.0205 17.4738 11.3279 17.9285L10.6722 18.4657C10.6114 18.5137 10.5608 18.5734 10.5233 18.6412C10.4859 18.709 10.4623 18.7836 10.454 18.8606C10.4457 18.9376 10.4528 19.0155 10.4749 19.0898C10.497 19.164 10.5337 19.2331 10.5828 19.2931C10.6319 19.353 10.6924 19.4025 10.7609 19.4388C10.8293 19.4751 10.9043 19.4973 10.9815 19.5043C11.0586 19.5113 11.1364 19.5028 11.2102 19.4794C11.2841 19.456 11.3525 19.4181 11.4116 19.368L12.1305 18.7795C12.4005 19.0346 12.678 19.264 12.9975 19.4631L12.5538 20.4219C12.5216 20.4914 12.5035 20.5667 12.5004 20.6433C12.4973 20.7198 12.5093 20.7963 12.5357 20.8682C12.5622 20.9402 12.6025 21.0062 12.6545 21.0625C12.7065 21.1189 12.769 21.1644 12.8386 21.1966C12.9082 21.2288 12.9834 21.2469 13.06 21.25C13.1366 21.2531 13.213 21.2411 13.285 21.2147C13.3569 21.1882 13.4229 21.1478 13.4793 21.0959C13.5356 21.0439 13.5812 20.9814 13.6133 20.9118L14.0332 20.0026C14.475 20.1652 14.9348 20.2776 15.4169 20.3273V21.2502C15.4158 21.3275 15.4301 21.4042 15.4589 21.4759C15.4877 21.5477 15.5305 21.613 15.5848 21.668C15.6391 21.7231 15.7037 21.7668 15.7751 21.7966C15.8464 21.8264 15.9229 21.8418 16.0002 21.8418C16.0775 21.8418 16.1541 21.8264 16.2254 21.7966C16.2967 21.7668 16.3614 21.7231 16.4156 21.668C16.4699 21.613 16.5127 21.5477 16.5415 21.4759C16.5704 21.4042 16.5846 21.3275 16.5836 21.2502V20.3273C17.0653 20.2772 17.5244 20.163 17.9661 20.0003L18.3871 20.9118C18.4521 21.0523 18.5702 21.1612 18.7155 21.2147C18.8608 21.2681 19.0213 21.2616 19.1618 21.1966C19.3023 21.1316 19.4113 21.0135 19.4647 20.8682C19.5181 20.7229 19.5116 20.5624 19.4467 20.4219L19.0023 19.462C19.3218 19.2629 19.5988 19.0332 19.8688 18.7784L20.5888 19.368C20.6479 19.4181 20.7163 19.456 20.7902 19.4794C20.864 19.5028 20.9418 19.5113 21.019 19.5043C21.0961 19.4973 21.1711 19.4751 21.2396 19.4388C21.308 19.4025 21.3686 19.353 21.4177 19.2931C21.4668 19.2331 21.5035 19.164 21.5256 19.0898C21.5477 19.0155 21.5548 18.9376 21.5465 18.8606C21.5381 18.7836 21.5146 18.709 21.4771 18.6412C21.4396 18.5734 21.389 18.5137 21.3283 18.4657L20.672 17.9279C20.9795 17.4735 21.2196 16.9759 21.3619 16.4422C21.3816 16.3682 21.3866 16.291 21.3765 16.215C21.3665 16.1391 21.3415 16.0659 21.3031 15.9996C21.2648 15.9332 21.2137 15.8751 21.1529 15.8286C21.092 15.782 21.0226 15.7478 20.9486 15.7281C20.8746 15.7083 20.7974 15.7034 20.7214 15.7135C20.6455 15.7235 20.5723 15.7485 20.5059 15.7869C20.4396 15.8252 20.3815 15.8763 20.335 15.9372C20.2884 15.998 20.2543 16.0674 20.2345 16.1414C19.7853 17.8262 17.9992 19.2085 15.9974 19.2085C13.9956 19.2085 12.2154 17.8272 11.7659 16.1414C11.7348 16.0178 11.6641 15.9077 11.5645 15.8281C11.4649 15.7485 11.342 15.7037 11.2145 15.7005Z" fill="black"/>
</svg>
