<svg width="32" height="32" viewBox="0 0 32 32" fill="none" xmlns="http://www.w3.org/2000/svg">
<circle cx="16" cy="16" r="16" fill="#EBEDF4"/>
<path d="M17.8974 14.1024L14.1024 17.8974C13.6149 17.4099 13.3149 16.7424 13.3149 15.9999C13.3149 14.5149 14.5149 13.3149 15.9999 13.3149C16.7424 13.3149 17.4099 13.6149 17.8974 14.1024Z" stroke="#3C2875" stroke-width="1.5" stroke-linecap="round" stroke-linejoin="round"/>
<path d="M20.3649 11.3274C19.0524 10.3374 17.5524 9.79736 15.9999 9.79736C13.3524 9.79736 10.8849 11.3574 9.16738 14.0574C8.49238 15.1149 8.49238 16.8924 9.16738 17.9499C9.75988 18.8799 10.4499 19.6824 11.1999 20.3274" stroke="#3C2875" stroke-width="1.5" stroke-linecap="round" stroke-linejoin="round"/>
<path d="M13.3149 21.6473C14.1699 22.0073 15.0774 22.2023 15.9999 22.2023C18.6474 22.2023 21.1149 20.6423 22.8324 17.9423C23.5074 16.8848 23.5074 15.1073 22.8324 14.0498C22.5849 13.6598 22.3149 13.2923 22.0374 12.9473" stroke="#3C2875" stroke-width="1.5" stroke-linecap="round" stroke-linejoin="round"/>
<path d="M18.6326 16.5249C18.4376 17.5824 17.5751 18.4449 16.5176 18.6399" stroke="#3C2875" stroke-width="1.5" stroke-linecap="round" stroke-linejoin="round"/>
<path d="M14.1025 17.8975L8.5 23.5" stroke="#3C2875" stroke-width="1.5" stroke-linecap="round" stroke-linejoin="round"/>
<path d="M23.5 8.5L17.8975 14.1025" stroke="#3C2875" stroke-width="1.5" stroke-linecap="round" stroke-linejoin="round"/>
</svg>
