<svg width="28" height="28" viewBox="0 0 28 28" fill="none" xmlns="http://www.w3.org/2000/svg">
<path d="M22.5556 0H5.44444C2.43756 0 0 2.43756 0 5.44444V22.5556C0 25.5624 2.43756 28 5.44444 28H22.5556C25.5624 28 28 25.5624 28 22.5556V5.44444C28 2.43756 25.5624 0 22.5556 0Z" fill="#10C031"/>
<path d="M13.9998 4.66699C8.41534 4.66699 3.88867 8.49755 3.88867 13.2225C3.88867 16.3912 5.92956 19.1508 8.95434 20.6293C8.50167 21.6015 7.84523 22.5162 6.99978 23.3337C8.68134 23.0381 10.2594 22.4198 11.6174 21.5292C12.3828 21.6863 13.1777 21.7781 13.9998 21.7781C19.5842 21.7781 24.1109 17.9475 24.1109 13.2225C24.1109 8.49755 19.5842 4.66699 13.9998 4.66699Z" fill="white"/>
</svg>
