<svg width="29" height="30" viewBox="0 0 29 30" fill="none" xmlns="http://www.w3.org/2000/svg">
<path opacity="0.35" d="M24.0002 11.4H4.80015C3.47415 11.4 2.40015 12.474 2.40015 13.8V23.4C2.40015 24.726 3.47415 25.8 4.80015 25.8H24.0002C25.3262 25.8 26.4002 24.726 26.4002 23.4V13.8C26.4002 12.474 25.3262 11.4 24.0002 11.4Z" fill="#4B70FF"/>
<path d="M14.4002 23.4C16.7198 23.4 18.6002 21.2509 18.6002 18.6C18.6002 15.949 16.7198 13.8 14.4002 13.8C12.0806 13.8 10.2002 15.949 10.2002 18.6C10.2002 21.2509 12.0806 23.4 14.4002 23.4Z" fill="#4B70FF"/>
<path d="M22.8001 19.8C23.4628 19.8 24.0001 19.2627 24.0001 18.6C24.0001 17.9372 23.4628 17.4 22.8001 17.4C22.1374 17.4 21.6001 17.9372 21.6001 18.6C21.6001 19.2627 22.1374 19.8 22.8001 19.8Z" fill="#4B70FF"/>
<path d="M6.00017 19.8C6.66291 19.8 7.20017 19.2627 7.20017 18.6C7.20017 17.9372 6.66291 17.4 6.00017 17.4C5.33743 17.4 4.80017 17.9372 4.80017 18.6C4.80017 19.2627 5.33743 19.8 6.00017 19.8Z" fill="#4B70FF"/>
<path d="M21.5984 1.79999C21.986 1.79999 22.3676 1.98719 22.598 2.33399C22.9664 2.88599 22.8176 3.62999 22.2656 3.99839L18.6656 6.39839C18.3356 6.62039 17.9192 6.66119 17.5544 6.51479L12.2888 4.40879L9.248 7.44839C8.7788 7.91759 8.0204 7.91759 7.5512 7.44839C7.082 6.97919 7.082 6.22079 7.5512 5.75159L11.1512 2.15159C11.4908 1.81199 12.0008 1.70999 12.4448 1.88519L17.8592 4.05119L20.9336 2.00159C21.1388 1.86599 21.3704 1.79999 21.5984 1.79999Z" fill="#4B70FF"/>
<path d="M5.99944 8.3952C5.99824 8.73 6.26944 9.0012 6.60424 9L10.2534 8.9832C10.7394 8.9808 10.9818 8.3928 10.6374 8.0484L6.94984 4.36079C6.60544 4.01639 6.01744 4.2588 6.01504 4.7448L5.99944 8.3952Z" fill="#4B70FF"/>
</svg>
