<svg width="49" height="48" viewBox="0 0 49 48" fill="none" xmlns="http://www.w3.org/2000/svg">
<path opacity="0.35" d="M42.7998 14V34C42.7998 37.32 40.1198 40 36.7998 40H32.2598C31.3198 40 30.3998 40.34 29.6798 40.94L27.0998 43.14C25.7798 44.26 23.8198 44.26 22.4998 43.14L19.9198 40.94C19.1998 40.34 18.2798 40 17.3398 40H12.7998C9.4798 40 6.7998 37.32 6.7998 34V14L24.7998 10L42.7998 14Z" fill="#BC311F"/>
<path d="M36.7998 6H12.7998C9.4798 6 6.7998 8.68 6.7998 12V14H42.7998V12C42.7998 8.68 40.1198 6 36.7998 6Z" fill="#792D3D"/>
<path d="M14.7998 32C15.9044 32 16.7998 31.1046 16.7998 30C16.7998 28.8954 15.9044 28 14.7998 28C13.6952 28 12.7998 28.8954 12.7998 30C12.7998 31.1046 13.6952 32 14.7998 32Z" fill="#FFE09D"/>
<path d="M22.7998 32H34.7998C35.9058 32 36.7998 31.104 36.7998 30C36.7998 28.896 35.9058 28 34.7998 28H22.7998C21.6938 28 20.7998 28.896 20.7998 30C20.7998 31.104 21.6938 32 22.7998 32Z" fill="#792D3D"/>
<path d="M22.7998 24H34.7998C35.9058 24 36.7998 23.104 36.7998 22C36.7998 20.896 35.9058 20 34.7998 20H22.7998C21.6938 20 20.7998 20.896 20.7998 22C20.7998 23.104 21.6938 24 22.7998 24Z" fill="#792D3D"/>
<path d="M14.7998 24C15.9044 24 16.7998 23.1046 16.7998 22C16.7998 20.8954 15.9044 20 14.7998 20C13.6952 20 12.7998 20.8954 12.7998 22C12.7998 23.1046 13.6952 24 14.7998 24Z" fill="#FFE09D"/>
</svg>
