<svg width="22" height="22" viewBox="0 0 22 22" fill="none" xmlns="http://www.w3.org/2000/svg">
<path d="M10.9998 0.458328C8.47679 0.458328 6.4165 2.51862 6.4165 5.04166V8.47916H6.4362C4.75133 9.82427 3.6665 11.891 3.6665 14.2083C3.6665 18.2503 6.95789 21.5417 10.9998 21.5417C15.0418 21.5417 18.3332 18.2503 18.3332 14.2083C18.3332 11.891 17.2483 9.82427 15.5635 8.47916H15.5832V5.04166C15.5832 2.51862 13.5229 0.458328 10.9998 0.458328ZM10.9998 1.83333C12.7796 1.83333 14.2082 3.26187 14.2082 5.04166V7.62516C13.2374 7.14981 12.1511 6.875 10.9998 6.875C9.84855 6.875 8.76229 7.14981 7.7915 7.62516V5.04166C7.7915 3.26187 9.22005 1.83333 10.9998 1.83333ZM10.9998 11C12.2653 11 13.2915 12.0262 13.2915 13.2917C13.2915 14.2308 12.725 15.0361 11.9165 15.39V16.9583C11.9165 17.4648 11.5063 17.875 10.9998 17.875C10.4934 17.875 10.0832 17.4648 10.0832 16.9583V15.39C9.27467 15.0361 8.70817 14.2308 8.70817 13.2917C8.70817 12.0262 9.73438 11 10.9998 11Z" fill="#6F5B86"/>
</svg>
