<svg width="55" height="55" viewBox="0 0 55 55" fill="none" xmlns="http://www.w3.org/2000/svg">
<rect width="55" height="55" rx="27.5" fill="#452368"/>
<rect width="4.49053" height="13.4716" transform="translate(21.0117 12.6963)" fill="#F4F4F4"/>
<path d="M29.9932 21.6768H33.5856C34.0816 21.6768 34.4837 22.0789 34.4837 22.5749V25.2692C34.4837 25.7652 34.0816 26.1673 33.5856 26.1673H30.8913C30.3953 26.1673 29.9932 25.7652 29.9932 25.2692V21.6768Z" fill="#FFC857"/>
<g clip-path="url(#clip0_23852_13563)">
<rect width="4.49053" height="13.4716" transform="translate(34.4839 12.6953) rotate(90)" fill="#F4F4F4" fill-opacity="0.7"/>
<rect width="4.49053" height="8.98106" transform="translate(29.9932 12.6953) rotate(90)" fill="#F4F4F4"/>
</g>
<rect width="4.49053" height="8.98106" transform="translate(29.9932 21.6768) rotate(-180)" fill="#F4F4F4" fill-opacity="0.7"/>
<path d="M15.0792 31.312H18.5647C19.104 31.312 19.5929 31.4254 20.0314 31.6522C20.475 31.874 20.8278 32.2016 21.0899 32.6351C21.3571 33.0635 21.4906 33.5877 21.4906 34.2077C21.4906 34.8226 21.3671 35.3317 21.1202 35.7349C20.8782 36.1382 20.5859 36.4431 20.2431 36.6498C19.9004 36.8514 19.5828 36.9623 19.2905 36.9824L21.7628 41.292H20.2961L17.9825 37.0732H16.3721V41.292H15.0792V31.312ZM16.3721 36.113H18.111C18.7058 36.113 19.1972 35.9643 19.5854 35.6669C19.9735 35.3695 20.1675 34.8932 20.1675 34.2379C20.1675 33.5827 19.9735 33.1114 19.5854 32.8241C19.2023 32.5368 18.7134 32.3931 18.1186 32.3931H16.3721V36.113ZM28.419 41.292V40.0823C28.3787 40.2083 28.2602 40.3822 28.0636 40.604C27.8721 40.8258 27.6075 41.0274 27.2698 41.2088C26.9371 41.3852 26.544 41.4734 26.0903 41.4734C25.5157 41.4734 24.994 41.3374 24.5253 41.0652C24.0616 40.793 23.6911 40.4124 23.4139 39.9235C23.1417 39.4296 23.0056 38.8524 23.0056 38.1921C23.0056 37.5318 23.1417 36.9572 23.4139 36.4683C23.6911 35.9744 24.0616 35.5913 24.5253 35.3191C24.994 35.0419 25.5157 34.9033 26.0903 34.9033C26.5389 34.9033 26.927 34.9839 27.2547 35.1452C27.5873 35.3065 27.8519 35.493 28.0485 35.7047C28.2501 35.9164 28.3686 36.0978 28.4039 36.2491V35.0847H29.7043V41.292H28.419ZM24.306 38.1921C24.306 38.6407 24.4043 39.0288 24.6009 39.3565C24.7975 39.6841 25.052 39.9386 25.3645 40.1201C25.6821 40.2965 26.0198 40.3847 26.3776 40.3847C26.7607 40.3847 27.1034 40.294 27.4059 40.1125C27.7083 39.9311 27.9477 39.6765 28.1241 39.3489C28.3005 39.0162 28.3888 38.6307 28.3888 38.1921C28.3888 37.7536 28.3005 37.3706 28.1241 37.0429C27.9477 36.7103 27.7083 36.4532 27.4059 36.2717C27.1034 36.0852 26.7607 35.992 26.3776 35.992C26.0198 35.992 25.6821 36.0827 25.3645 36.2642C25.052 36.4456 24.7975 36.7002 24.6009 37.0278C24.4043 37.3554 24.306 37.7435 24.306 38.1921ZM31.6058 41.292V35.0847H32.9213V41.292H31.6058ZM32.2787 32.9602C32.0418 32.9602 31.8377 32.877 31.6663 32.7107C31.4999 32.5393 31.4168 32.3352 31.4168 32.0983C31.4168 31.8614 31.4999 31.6572 31.6663 31.4859C31.8377 31.3145 32.0418 31.2288 32.2787 31.2288C32.4349 31.2288 32.5786 31.2691 32.7096 31.3498C32.8457 31.4304 32.9541 31.5363 33.0348 31.6673C33.1154 31.7933 33.1557 31.937 33.1557 32.0983C33.1557 32.3352 33.07 32.5393 32.8987 32.7107C32.7273 32.877 32.5206 32.9602 32.2787 32.9602ZM34.6904 35.0847H40.1038L36.3916 40.294H39.9526V41.292H34.267L37.9793 36.0752H34.6904V35.0847Z" fill="#F4F4F4"/>
<defs>
<clipPath id="clip0_23852_13563">
<rect width="4.49053" height="13.4716" fill="white" transform="translate(34.4839 12.6953) rotate(90)"/>
</clipPath>
</defs>
</svg>
