<svg width="92" height="32" viewBox="0 0 92 32" fill="none" xmlns="http://www.w3.org/2000/svg">
<g id="Logo" clip-path="url(#clip0_23501_376)">
<path id="Vector" d="M6.63468 6.74219H0.438477V25.2577H6.63468V6.74219Z" fill="#4B0082"/>
<path id="Vector_2" d="M12.8306 19.0859H17.7876C18.4719 19.0859 19.0267 19.6386 19.0267 20.3204V24.0235C19.0267 24.7051 18.4719 25.2578 17.7876 25.2578H14.0698C13.3854 25.2578 12.8306 24.7051 12.8306 24.0235V19.0859Z" fill="#FFC857"/>
<g id="Clip path group">
<mask id="mask0_23501_376" style="mask-type:luminance" maskUnits="userSpaceOnUse" x="0" y="6" width="20" height="7">
<g id="clip0_6836_1104">
<path id="Vector_3" d="M19.0283 12.914V6.74219L0.439682 6.74219V12.914H19.0283Z" fill="white"/>
</g>
</mask>
<g mask="url(#mask0_23501_376)">
<g id="Group">
<path id="Vector_4" d="M19.0278 12.914V6.74219L0.439194 6.74219V12.914H19.0278Z" fill="#4B0082" fill-opacity="0.7"/>
<path id="Vector_5" d="M12.8306 12.914V6.74219L0.438168 6.74219V12.914H12.8306Z" fill="#4B0082"/>
</g>
</g>
</g>
<path id="Vector_6" d="M6.63437 19.0859H12.8306L12.8306 6.74226H6.63437L6.63437 19.0859Z" fill="#4B0082" fill-opacity="0.7"/>
<path id="Vector_7" d="M29.2607 3.54688H37.9087C39.2469 3.54688 40.4599 3.82716 41.548 4.38772C42.6485 4.93582 43.524 5.74553 44.1743 6.81682C44.8371 7.87566 45.1684 9.17117 45.1684 10.7034C45.1684 12.2231 44.8621 13.4813 44.2493 14.4778C43.649 15.4744 42.9237 16.228 42.0733 16.7387C41.2229 17.237 40.4349 17.5111 39.7096 17.5609L45.8439 28.2116H42.2046L36.4642 17.7851H32.4686V28.2116H29.2607V3.54688ZM32.4686 15.4121H36.7831C38.2589 15.4121 39.4782 15.0446 40.4411 14.3097C41.4042 13.5747 41.8856 12.3975 41.8856 10.7781C41.8856 9.15871 41.4042 7.99399 40.4411 7.28395C39.4908 6.57391 38.2776 6.21889 36.8019 6.21889H32.4686V15.4121Z" fill="#4B0082"/>
<path id="Vector_8" d="M62.3587 28.211V25.2213C62.2586 25.5327 61.9647 25.9626 61.477 26.5106C61.0018 27.0588 60.3453 27.557 59.5073 28.0055C58.6819 28.4414 57.7064 28.6595 56.5809 28.6595C55.1552 28.6595 53.8609 28.3231 52.6978 27.6505C51.5472 26.9777 50.628 26.0373 49.9402 24.829C49.2649 23.6082 48.9272 22.1818 48.9272 20.55C48.9272 18.9181 49.2649 17.498 49.9402 16.2897C50.628 15.069 51.5472 14.1222 52.6978 13.4496C53.8609 12.7644 55.1552 12.4219 56.5809 12.4219C57.694 12.4219 58.6569 12.6212 59.4698 13.0198C60.2952 13.4184 60.9518 13.8793 61.4396 14.4025C61.9397 14.9257 62.2336 15.3742 62.3212 15.7479V12.8703H65.5478V28.211H62.3587ZM52.1537 20.55C52.1537 21.6587 52.3976 22.6179 52.8854 23.4275C53.3731 24.2373 54.0046 24.8663 54.78 25.3147C55.5679 25.7508 56.4058 25.9688 57.2938 25.9688C58.2442 25.9688 59.0947 25.7446 59.845 25.2962C60.5954 24.8476 61.1895 24.2186 61.6271 23.4089C62.0649 22.5868 62.2837 21.6338 62.2837 20.55C62.2837 19.4662 62.0649 18.5195 61.6271 17.7098C61.1895 16.8877 60.5954 16.2524 59.845 15.8039C59.0947 15.343 58.2442 15.1126 57.2938 15.1126C56.4058 15.1126 55.5679 15.3368 54.78 15.7852C54.0046 16.2337 53.3731 16.8628 52.8854 17.6724C52.3976 18.4822 52.1537 19.4414 52.1537 20.55Z" fill="#4B0082"/>
<path id="Vector_9" d="M70.2658 28.2101V12.8694H73.5299V28.2101H70.2658ZM71.9353 7.6188C71.3475 7.6188 70.841 7.41325 70.4158 7.00218C70.0032 6.57864 69.7969 6.07414 69.7969 5.48867C69.7969 4.90319 70.0032 4.39868 70.4158 3.97515C70.841 3.55161 71.3475 3.33984 71.9353 3.33984C72.3231 3.33984 72.6795 3.4395 73.0046 3.63881C73.3423 3.83812 73.6112 4.09972 73.8113 4.4236C74.0114 4.73502 74.1114 5.09004 74.1114 5.48867C74.1114 6.07414 73.8989 6.57864 73.4735 7.00218C73.0483 7.41325 72.5356 7.6188 71.9353 7.6188Z" fill="#4B0082"/>
<path id="Vector_10" d="M77.9191 12.8711H91.3506L82.1399 25.7453H90.9754V28.2118H76.8687L86.0794 15.3189H77.9191V12.8711Z" fill="#4B0082"/>
</g>
<defs>
<clipPath id="clip0_23501_376">
<rect width="91.7895" height="32" fill="white"/>
</clipPath>
</defs>
</svg>
