<svg width="64" height="64" viewBox="0 0 64 64" fill="none" xmlns="http://www.w3.org/2000/svg">
<path d="M58.6667 18.667C58.6667 14.2483 55.0854 10.667 50.6667 10.667H13.3334C8.91471 10.667 5.33337 14.2483 5.33337 18.667V40.0003C5.33337 44.419 8.91471 48.0003 13.3334 48.0003H34.6667H50.6667C55.0854 48.0003 58.6667 44.419 58.6667 40.0003V18.667Z" fill="#C4DCF7"/>
<path d="M57.3333 48C56.864 48 6.95196 48 6.66663 48C4.45863 48 2.66663 49.792 2.66663 52C2.66663 54.208 4.45863 56 6.66663 56C7.00263 56 56.9973 56 57.3333 56C59.5413 56 61.3333 54.208 61.3333 52C61.3333 49.792 59.5413 48 57.3333 48Z" fill="#744AD0"/>
<path d="M48 26.6663H16C14.5254 26.6663 13.3334 25.4717 13.3334 23.9997C13.3334 22.5277 14.5254 21.333 16 21.333H48C49.4747 21.333 50.6667 22.5277 50.6667 23.9997C50.6667 25.4717 49.4747 26.6663 48 26.6663Z" fill="#744AD0"/>
<path d="M42.6667 37.3333H16C14.5254 37.3333 13.3334 36.1387 13.3334 34.6667C13.3334 33.1947 14.5254 32 16 32H42.6667C44.1414 32 45.3334 33.1947 45.3334 34.6667C45.3334 36.1387 44.1414 37.3333 42.6667 37.3333Z" fill="#744AD0"/>
</svg>
