<svg width="24" height="24" viewBox="0 0 24 24" fill="none" xmlns="http://www.w3.org/2000/svg">
<path d="M20 6H4C2.895 6 2 6.895 2 8V16C2 17.105 2.895 18 4 18H20C21.105 18 22 17.105 22 16V8C22 6.895 21.105 6 20 6Z" fill="#F5E0AA"/>
<path d="M12 16C13.933 16 15.5 14.2091 15.5 12C15.5 9.79086 13.933 8 12 8C10.067 8 8.5 9.79086 8.5 12C8.5 14.2091 10.067 16 12 16Z" fill="#8E9A58"/>
<path d="M19 13C19.5523 13 20 12.5523 20 12C20 11.4477 19.5523 11 19 11C18.4477 11 18 11.4477 18 12C18 12.5523 18.4477 13 19 13Z" fill="#8E9A58"/>
<path d="M5 13C5.55228 13 6 12.5523 6 12C6 11.4477 5.55228 11 5 11C4.44772 11 4 11.4477 4 12C4 12.5523 4.44772 13 5 13Z" fill="#8E9A58"/>
</svg>
