<svg width="28" height="28" viewBox="0 0 28 28" fill="none" xmlns="http://www.w3.org/2000/svg">
<g id="Add User Male" clip-path="url(#clip0_23501_12922)">
<path id="Vector" d="M22.1668 28.0002C25.3885 28.0002 28.0002 25.3885 28.0002 22.1668C28.0002 18.9452 25.3885 16.3335 22.1668 16.3335C18.9452 16.3335 16.3335 18.9452 16.3335 22.1668C16.3335 25.3885 18.9452 28.0002 22.1668 28.0002Z" fill="#C0EBEB"/>
<path id="Vector_2" d="M13.9998 14.0002C17.2215 14.0002 19.8332 11.3885 19.8332 8.16683C19.8332 4.94517 17.2215 2.3335 13.9998 2.3335C10.7782 2.3335 8.1665 4.94517 8.1665 8.16683C8.1665 11.3885 10.7782 14.0002 13.9998 14.0002Z" fill="#C7C6FF"/>
<path id="Vector_3" d="M21 25.0835V19.2502C21 18.6062 21.5227 18.0835 22.1667 18.0835C22.8107 18.0835 23.3333 18.6062 23.3333 19.2502V25.0835C23.3333 25.7275 22.8107 26.2502 22.1667 26.2502C21.5227 26.2502 21 25.7275 21 25.0835Z" fill="#4BAE84"/>
<path id="Vector_4" d="M19.2502 21H25.0835C25.7275 21 26.2502 21.5227 26.2502 22.1667C26.2502 22.8107 25.7275 23.3333 25.0835 23.3333H19.2502C18.6062 23.3333 18.0835 22.8107 18.0835 22.1667C18.0835 21.5227 18.6062 21 19.2502 21Z" fill="#4BAE84"/>
<path id="Vector_5" d="M16.3333 22.1667C16.3333 20.2498 17.2713 18.5628 18.6982 17.5H7C5.06683 17.5 3.5 19.0668 3.5 21C3.5 22.9332 5.06683 24.5 7 24.5H16.8257C16.513 23.7848 16.3333 22.9973 16.3333 22.1667Z" fill="#4BAE84"/>
</g>
<defs>
<clipPath id="clip0_23501_12922">
<rect width="28" height="28" fill="white"/>
</clipPath>
</defs>
</svg>
