<svg width="40" height="40" viewBox="0 0 40 40" fill="none" xmlns="http://www.w3.org/2000/svg">
<path opacity="0.35" d="M20.0002 36.6667C29.2049 36.6667 36.6668 29.2048 36.6668 20C36.6668 10.7953 29.2049 3.33337 20.0002 3.33337C10.7954 3.33337 3.3335 10.7953 3.3335 20C3.3335 29.2048 10.7954 36.6667 20.0002 36.6667Z" fill="#7EB7B7"/>
<path d="M23.2314 28.3333C22.2431 28.3333 21.3564 27.7233 21.0048 26.7983L17.7264 18.1883H17.6581L17.7364 26.7C17.7464 27.6 17.0181 28.3333 16.1181 28.3333H16.0031C15.1098 28.3333 14.3848 27.6083 14.3848 26.715V14.05C14.3848 12.7333 15.4514 11.6666 16.7681 11.6666H16.8764C17.8714 11.6666 18.7614 12.285 19.1098 13.2166L22.3681 21.9533H22.4364L22.3781 13.295C22.3714 12.3983 23.0981 11.6666 23.9964 11.6666C24.8898 11.6666 25.6148 12.3916 25.6148 13.285V25.95C25.6148 27.2666 24.5481 28.3333 23.2314 28.3333Z" fill="#5E6CE9"/>
</svg>
