<svg width="40" height="40" viewBox="0 0 40 40" fill="none" xmlns="http://www.w3.org/2000/svg">
<circle cx="20" cy="20" r="20" fill="#EAECFF" fill-opacity="0.6"/>
<path d="M26.3575 12.957L24.0283 13.8887C23.5867 14.0654 23.09 14.0445 22.6642 13.832L20.8817 12.9412C20.3325 12.667 19.6817 12.692 19.155 13.0079L16.425 14.6445C16.0458 14.872 15.5917 14.9395 15.1633 14.832L13.5358 14.4254C13.0092 14.2937 12.5 14.6912 12.5 15.2337V19.9337C12.5 19.2045 13.4458 18.9179 13.85 19.5245L14.8242 20.9854C15.3458 21.7687 16.4542 21.8779 17.1192 21.2129L19.125 19.207C19.6675 18.6645 20.455 18.4462 21.1992 18.632L22.6008 18.982C23.0692 19.0995 23.5658 19.0254 23.98 18.777L26.0692 17.5237C26.6992 17.147 27.5 17.6004 27.5 18.3345V13.7304C27.5 13.1412 26.9042 12.7379 26.3575 12.957Z" fill="#3E4177"/>
<path opacity="0.35" d="M25 27.5H15C13.6192 27.5 12.5 26.3808 12.5 25V19.9341C12.5 19.205 13.4458 18.9183 13.85 19.525L14.8242 20.9858C15.3458 21.7691 16.4542 21.8783 17.1192 21.2133L19.125 19.2075C19.6675 18.665 20.455 18.4466 21.1992 18.6325L22.6008 18.9825C23.07 19.1 23.5658 19.0258 23.98 18.7775L26.0692 17.5241C26.6992 17.1475 27.5 17.6008 27.5 18.335V25C27.5 26.3808 26.3808 27.5 25 27.5Z" fill="#0585E2"/>
</svg>
