<svg width="40" height="40" viewBox="0 0 40 40" fill="none" xmlns="http://www.w3.org/2000/svg">
<circle cx="20" cy="20" r="20" fill="#EAECFF" fill-opacity="0.6"/>
<path d="M14.167 15.833C12.7862 15.833 11.667 16.9522 11.667 18.333V21.6663C11.667 23.0472 12.7862 24.1663 14.167 24.1663H17.5003V15.833H14.167Z" fill="#3D59E9"/>
<path opacity="0.35" d="M26.4713 11.7936C25.8463 11.5344 25.1322 11.6777 24.6547 12.1552C23.6313 13.1777 20.3513 15.8336 17.4997 15.8336C16.5797 15.8336 15.833 16.5802 15.833 17.5002V22.5002C15.833 23.4202 16.5797 24.1669 17.4997 24.1669C20.333 24.1669 23.6263 26.8236 24.6547 27.8452C24.9738 28.1644 25.3988 28.3336 25.833 28.3336C26.048 28.3336 26.2647 28.2919 26.4713 28.2069C27.0938 27.9486 27.4997 27.3411 27.4997 26.6669V13.3336C27.4997 12.6594 27.0938 12.0519 26.4713 11.7936Z" fill="#D83EDB"/>
<path d="M17.5003 20.833H14.167C14.167 20.833 15.0003 26.9363 15.0003 27.083C15.0003 27.773 15.5603 28.333 16.2503 28.333C16.9403 28.333 17.5003 27.773 17.5003 27.083C17.5003 26.9363 17.5003 20.833 17.5003 20.833Z" fill="#3D59E9"/>
<path d="M27.5 17.6533V22.3475C28.4692 22.0033 29.1667 21.0875 29.1667 20.0008C29.1667 18.9142 28.4692 17.9975 27.5 17.6533Z" fill="#3D59E9"/>
</svg>
