<svg width="41" height="40" viewBox="0 0 41 40" fill="none" xmlns="http://www.w3.org/2000/svg">
<circle cx="20.5" cy="20" r="20" fill="#EAECFF" fill-opacity="0.6"/>
<path opacity="0.35" d="M30.0003 13.333H18.3337C17.4128 13.333 16.667 14.0788 16.667 14.9997V23.333H30.0003V13.333Z" fill="#48CD75"/>
<path d="M24.9997 21.6667C26.6105 21.6667 27.9163 20.1743 27.9163 18.3333C27.9163 16.4924 26.6105 15 24.9997 15C23.3888 15 22.083 16.4924 22.083 18.3333C22.083 20.1743 23.3888 21.6667 24.9997 21.6667Z" fill="#419B50"/>
<path d="M19.1663 19.1667C19.6266 19.1667 19.9997 18.7936 19.9997 18.3333C19.9997 17.8731 19.6266 17.5 19.1663 17.5C18.7061 17.5 18.333 17.8731 18.333 18.3333C18.333 18.7936 18.7061 19.1667 19.1663 19.1667Z" fill="#419B50"/>
<path d="M10 18.3333L12.3567 15.9767C12.9825 15.3508 13.83 15 14.7142 15H16.6667V21.6858L19.5875 20.5042C20.3425 20.1983 21.2075 20.3742 21.7833 20.9508C22.6192 21.7867 22.5667 23.1575 21.6692 23.9267L18.6792 26.4892C17.9183 27.1408 16.9483 27.4975 15.9467 27.4925L10 27.4625V18.3333Z" fill="#C17F49"/>
</svg>
