<svg width="40" height="40" viewBox="0 0 40 40" fill="none" xmlns="http://www.w3.org/2000/svg">
<circle cx="20" cy="20" r="20" fill="#EAECFF" fill-opacity="0.6"/>
<path d="M27.9163 24.167C27.5947 24.167 12.4047 24.167 12.083 24.167C11.393 24.167 10.833 24.727 10.833 25.417C10.833 26.107 11.393 26.667 12.083 26.667C12.4047 26.667 27.5947 26.667 27.9163 26.667C28.6063 26.667 29.1663 26.107 29.1663 25.417C29.1663 24.727 28.6063 24.167 27.9163 24.167Z" fill="#6B3976"/>
<path opacity="0.35" d="M28.3337 14.167C28.3337 12.7862 27.2145 11.667 25.8337 11.667C24.747 11.667 23.8312 12.3645 23.487 13.3337H14.167C12.7862 13.3337 11.667 14.4528 11.667 15.8337V22.5003C11.667 23.8812 12.7862 25.0003 14.167 25.0003H25.8337C27.2145 25.0003 28.3337 23.8812 28.3337 22.5003V15.8337C28.3337 15.5395 28.2737 15.262 28.1803 15.0003C28.2737 14.7387 28.3337 14.4612 28.3337 14.167Z" fill="#3793FF"/>
<path d="M29.1666 14.1667C29.1666 13.85 29.3091 13.5675 29.5333 13.3783C29.7324 13.2092 29.8199 12.9408 29.7283 12.6958C29.5666 12.2683 29.3374 11.8742 29.0533 11.5275C28.8933 11.3325 28.6249 11.2583 28.3899 11.3483C28.1074 11.4567 27.7824 11.4425 27.4999 11.28C27.2166 11.1167 27.0416 10.84 26.9958 10.5408C26.9583 10.2958 26.7641 10.1 26.5199 10.0583C26.2966 10.02 26.0674 10 25.8333 10C25.5991 10 25.3699 10.02 25.1474 10.0583C24.9033 10.1 24.7091 10.2958 24.6716 10.5408C24.6249 10.84 24.4499 11.1167 24.1666 11.28C23.8841 11.4433 23.5591 11.4567 23.2766 11.3483C23.0416 11.2575 22.7733 11.3325 22.6133 11.5275C22.3283 11.875 22.0991 12.2683 21.9383 12.6958C21.8458 12.9408 21.9333 13.2092 22.1333 13.3783C22.3574 13.5675 22.4999 13.85 22.4999 14.1667C22.4999 14.4833 22.3574 14.7658 22.1333 14.955C21.9341 15.1242 21.8466 15.3925 21.9383 15.6375C22.0999 16.065 22.3291 16.4592 22.6133 16.8058C22.7733 17.0008 23.0416 17.075 23.2766 16.985C23.5583 16.8767 23.8841 16.89 24.1666 17.0533C24.4499 17.2167 24.6249 17.4933 24.6708 17.7925C24.7083 18.0375 24.9024 18.2333 25.1466 18.275C25.3699 18.3133 25.5991 18.3333 25.8333 18.3333C26.0674 18.3333 26.2966 18.3133 26.5191 18.275C26.7633 18.2333 26.9574 18.0375 26.9949 17.7925C27.0416 17.4933 27.2166 17.2167 27.4999 17.0533C27.7824 16.89 28.1074 16.8767 28.3899 16.985C28.6249 17.0758 28.8933 17.0008 29.0533 16.8058C29.3383 16.4583 29.5674 16.065 29.7283 15.6375C29.8208 15.3933 29.7333 15.1242 29.5333 14.955C29.3091 14.7658 29.1666 14.4833 29.1666 14.1667ZM25.8333 15.8333C24.9124 15.8333 24.1666 15.0867 24.1666 14.1667C24.1666 13.2467 24.9124 12.5 25.8333 12.5C26.7541 12.5 27.4999 13.2467 27.4999 14.1667C27.4999 15.0867 26.7541 15.8333 25.8333 15.8333Z" fill="#3167CF"/>
</svg>
