<svg width="41" height="40" viewBox="0 0 41 40" fill="none" xmlns="http://www.w3.org/2000/svg">
<circle cx="20.5" cy="20" r="20" fill="#EAECFF" fill-opacity="0.6"/>
<path opacity="0.35" d="M25 27.5H15C13.6192 27.5 12.5 26.3808 12.5 25V15H25C26.3808 15 27.5 16.1192 27.5 17.5V25C27.5 26.3808 26.3808 27.5 25 27.5Z" fill="#4451BF"/>
<path d="M12.5 15C12.5 13.6192 13.6192 12.5 15 12.5H22.5C23.8808 12.5 25 13.6192 25 15H12.5Z" fill="#4451BF"/>
<path d="M20 18C18.344 18 17 19.344 17 21C17 22.656 18.344 24 20 24C21.656 24 23 22.656 23 21C23 19.344 21.656 18 20 18Z" fill="#FFD4C2"/>
<path d="M21.5004 21.5999H18.5004C18.1692 21.5999 17.9004 21.3311 17.9004 20.9999C17.9004 20.6687 18.1692 20.3999 18.5004 20.3999H21.5004C21.8316 20.3999 22.1004 20.6687 22.1004 20.9999C22.1004 21.3311 21.8316 21.5999 21.5004 21.5999Z" fill="#DC180D"/>
</svg>
