<svg width="41" height="40" viewBox="0 0 41 40" fill="none" xmlns="http://www.w3.org/2000/svg">
<circle cx="20.5" cy="20" r="20" fill="#EAECFF" fill-opacity="0.6"/>
<path opacity="0.8" d="M19.0272 19.3745L18.9497 19.2578C18.5763 18.6978 18.5763 17.9687 18.9497 17.4087L20.2472 15.462C20.6163 14.9087 20.2188 14.167 19.5538 14.167H12.4997C11.5788 14.167 10.833 14.9128 10.833 15.8337V22.5003C10.833 23.4212 11.5788 24.167 12.4997 24.167H18.1022C18.443 24.167 18.7497 23.9595 18.8755 23.6428L19.348 22.4612C19.7563 21.4428 19.6355 20.2878 19.0272 19.3745Z" fill="#9CDFA8"/>
<path d="M13.3333 19.9997C13.7936 19.9997 14.1667 19.6266 14.1667 19.1663C14.1667 18.7061 13.7936 18.333 13.3333 18.333C12.8731 18.333 12.5 18.7061 12.5 19.1663C12.5 19.6266 12.8731 19.9997 13.3333 19.9997Z" fill="#215533"/>
<path d="M19.3417 22.4797L19.3492 22.4613C19.7567 21.4422 19.6367 20.288 19.0275 19.3747L18.95 19.258C18.5767 18.698 18.5767 17.9688 18.95 17.4088L19.9167 15.9588C19.6758 15.8847 19.4275 15.833 19.1667 15.833C17.5558 15.833 16.25 17.3255 16.25 19.1663C16.25 21.0655 17.6392 22.593 19.3192 22.4955C19.3275 22.4897 19.3333 22.4847 19.3417 22.4797Z" fill="#215533"/>
<path opacity="0.8" d="M21.6663 22.4997L20.6463 20.9697C20.258 20.3872 20.2746 19.6238 20.6888 19.0597L22.5555 16.5138C22.8696 16.0863 23.3688 15.833 23.8996 15.833H27.4996C28.4205 15.833 29.1663 16.5788 29.1663 17.4997V24.1663C29.1663 25.0872 28.4205 25.833 27.4996 25.833H21.6738C21.0996 25.833 20.698 25.2663 20.8871 24.7247L21.6663 22.4997Z" fill="#9CDFA8"/>
<path d="M26.6663 21.6667C27.1266 21.6667 27.4997 21.2936 27.4997 20.8333C27.4997 20.3731 27.1266 20 26.6663 20C26.2061 20 25.833 20.3731 25.833 20.8333C25.833 21.2936 26.2061 21.6667 26.6663 21.6667Z" fill="#215533"/>
<path d="M21.613 17.7998L20.6888 19.0598C20.2746 19.624 20.258 20.3873 20.6463 20.9698L21.6663 22.4998L21.1213 24.0573C22.3896 23.6956 23.333 22.3948 23.333 20.8331C23.333 19.4806 22.6255 18.3223 21.613 17.7998Z" fill="#215533"/>
</svg>
