<svg width="41" height="40" viewBox="0 0 41 40" fill="none" xmlns="http://www.w3.org/2000/svg">
<circle cx="20.5" cy="20" r="20" fill="#EAECFF" fill-opacity="0.6"/>
<path d="M28.289 16.6453C28.3365 15.8037 27.7457 15.0312 26.9132 14.8937C23.454 14.3245 23.7198 11.667 19.9998 11.667C16.2798 11.667 16.5457 14.3245 13.0865 14.8937C12.254 15.0303 11.6632 15.8028 11.7107 16.6453C12.0673 23.0037 14.6115 26.0245 19.9998 28.3337C25.3882 26.0245 27.9323 23.0037 28.289 16.6453Z" fill="#93E2FB"/>
<path d="M21.6663 19.1667C21.6663 18.2458 20.9205 17.5 19.9997 17.5C19.0788 17.5 18.333 18.2458 18.333 19.1667C18.333 19.7817 18.6705 20.3133 19.1663 20.6025V21.6667C19.1663 22.1267 19.5397 22.5 19.9997 22.5C20.4597 22.5 20.833 22.1267 20.833 21.6667V20.6025C21.3288 20.3133 21.6663 19.7817 21.6663 19.1667Z" fill="#36A57D"/>
</svg>
