<svg width="41" height="40" viewBox="0 0 41 40" fill="none" xmlns="http://www.w3.org/2000/svg">
<rect x="0.5" width="40" height="40" rx="20" fill="#EAECFF" fill-opacity="0.6"/>
<path opacity="0.65" d="M20.4997 20.0003C22.8009 20.0003 24.6663 18.1348 24.6663 15.8337C24.6663 13.5325 22.8009 11.667 20.4997 11.667C18.1985 11.667 16.333 13.5325 16.333 15.8337C16.333 18.1348 18.1985 20.0003 20.4997 20.0003Z" fill="#8A5E35"/>
<path d="M25.5 22.5H15.5C14.1192 22.5 13 23.6192 13 25C13 26.3808 14.1192 27.5 15.5 27.5H25.5C26.8808 27.5 28 26.3808 28 25C28 23.6192 26.8808 22.5 25.5 22.5Z" fill="#A03976"/>
</svg>
