<svg width="41" height="40" viewBox="0 0 41 40" fill="none" xmlns="http://www.w3.org/2000/svg">
<circle cx="20.5" cy="20" r="20" fill="#EAECFF" fill-opacity="0.6"/>
<path d="M20.0003 28.3337C24.6027 28.3337 28.3337 24.6027 28.3337 20.0003C28.3337 15.398 24.6027 11.667 20.0003 11.667C15.398 11.667 11.667 15.398 11.667 20.0003C11.667 24.6027 15.398 28.3337 20.0003 28.3337Z" fill="#D9B6FB"/>
<path d="M24.1667 20.8337H15.8333C15.3733 20.8337 15 20.4603 15 20.0003C15 19.5403 15.3733 19.167 15.8333 19.167H24.1667C24.6267 19.167 25 19.5403 25 20.0003C25 20.4603 24.6267 20.8337 24.1667 20.8337Z" fill="#C133CD"/>
<path d="M19.167 24.1667V15.8333C19.167 15.3733 19.5403 15 20.0003 15C20.4603 15 20.8337 15.3733 20.8337 15.8333V24.1667C20.8337 24.6267 20.4603 25 20.0003 25C19.5403 25 19.167 24.6267 19.167 24.1667Z" fill="#C133CD"/>
</svg>
