<svg width="41" height="40" viewBox="0 0 41 40" fill="none" xmlns="http://www.w3.org/2000/svg">
<circle cx="20.5" cy="20" r="20" fill="#EAECFF" fill-opacity="0.6"/>
<path opacity="0.35" d="M25 27.5H15C13.6192 27.5 12.5 26.3808 12.5 25V15H25C26.3808 15 27.5 16.1192 27.5 17.5V25C27.5 26.3808 26.3808 27.5 25 27.5Z" fill="#4451BF"/>
<path d="M12.5 15C12.5 13.6192 13.6192 12.5 15 12.5H22.5C23.8808 12.5 25 13.6192 25 15H12.5Z" fill="#4451BF"/>
<path d="M20 24C21.6569 24 23 22.6569 23 21C23 19.3431 21.6569 18 20 18C18.3431 18 17 19.3431 17 21C17 22.6569 18.3431 24 20 24Z" fill="#C8F9EF"/>
<path d="M19.4004 22.5004V19.5004C19.4004 19.1692 19.6692 18.9004 20.0004 18.9004C20.3316 18.9004 20.6004 19.1692 20.6004 19.5004V22.5004C20.6004 22.8316 20.3316 23.1004 20.0004 23.1004C19.6692 23.1004 19.4004 22.8316 19.4004 22.5004Z" fill="#549287"/>
<path d="M18.5004 20.4004H21.5004C21.8316 20.4004 22.1004 20.6692 22.1004 21.0004C22.1004 21.3316 21.8316 21.6004 21.5004 21.6004H18.5004C18.1692 21.6004 17.9004 21.3316 17.9004 21.0004C17.9004 20.6692 18.1692 20.4004 18.5004 20.4004Z" fill="#549287"/>
</svg>
