<svg width="38" height="38" viewBox="0 0 38 38" fill="none" xmlns="http://www.w3.org/2000/svg">
<path d="M19 22.1667H9.5C6.87642 22.1667 4.75 20.0403 4.75 17.4167V7.91675C4.75 5.29316 6.87642 3.16675 9.5 3.16675H19C21.6236 3.16675 23.75 5.29316 23.75 7.91675V17.4167C23.75 20.0403 21.6236 22.1667 19 22.1667Z" fill="#733B9C"/>
<path opacity="0.35" d="M30.0834 34.8335H20.5834C17.9598 34.8335 15.8334 32.7071 15.8334 30.0835V20.5835C15.8334 17.9599 17.9598 15.8335 20.5834 15.8335H30.0834C32.707 15.8335 34.8334 17.9599 34.8334 20.5835V30.0835C34.8334 32.7071 32.707 34.8335 30.0834 34.8335Z" fill="#C6ADD5"/>
<path d="M7.91675 27.7432C7.91675 27.0117 8.80025 26.6428 9.32116 27.1574L13.0198 30.8212C13.4901 31.2867 13.4901 32.0483 13.0198 32.5138L9.32116 36.1776C8.80025 36.6922 7.91675 36.3233 7.91675 35.5902V27.7432Z" fill="black"/>
<path d="M9.50004 33.2501H6.33337C3.71454 33.2501 1.58337 31.119 1.58337 28.5001V25.3335C1.58337 24.4595 2.29112 23.7501 3.16671 23.7501C4.04229 23.7501 4.75004 24.4595 4.75004 25.3335V28.5001C4.75004 29.3725 5.45937 30.0835 6.33337 30.0835H9.50004C10.3756 30.0835 11.0834 30.7928 11.0834 31.6668C11.0834 32.5408 10.3756 33.2501 9.50004 33.2501Z" fill="#493260"/>
</svg>
