<svg width="40" height="40" viewBox="0 0 40 40" fill="none" xmlns="http://www.w3.org/2000/svg">
<path d="M20 23.3359H10C7.23833 23.3359 5 21.0976 5 18.3359V8.33594C5 5.57427 7.23833 3.33594 10 3.33594H20C22.7617 3.33594 25 5.57427 25 8.33594V18.3359C25 21.0976 22.7617 23.3359 20 23.3359Z" fill="#733B9C"/>
<path opacity="0.35" d="M31.6665 36.668H21.6665C18.9048 36.668 16.6665 34.4296 16.6665 31.668V21.668C16.6665 18.9063 18.9048 16.668 21.6665 16.668H31.6665C34.4282 16.668 36.6665 18.9063 36.6665 21.668V31.668C36.6665 34.4296 34.4282 36.668 31.6665 36.668Z" fill="#C6ADD5"/>
<g opacity="0.5">
<path d="M6.847 25.3199C7.78911 24.3778 9.3163 24.3778 10.2584 25.3199C10.3334 25.3949 10.622 25.6835 10.697 25.7585C11.376 26.4374 11.558 27.419 11.258 28.2681C12.1071 27.9681 13.0882 28.1497 13.7672 28.8286C13.8422 28.9036 14.1308 29.1922 14.2058 29.2672C15.1479 30.2093 15.1479 31.7365 14.2058 32.6786C13.2637 33.6207 11.7365 33.6207 10.7944 32.6786C10.7194 32.6036 10.4308 32.315 10.3558 32.24C9.67683 31.5611 9.49481 30.5795 9.79481 29.7304C8.94569 30.0304 7.96455 29.8488 7.2856 29.1699C7.2106 29.0949 6.922 28.8063 6.847 28.7313C5.9049 27.7892 5.9049 26.262 6.847 25.3199Z" fill="#493260"/>
</g>
<path d="M8.5904 27.0616C8.93294 26.7191 9.48821 26.7191 9.83075 27.0616L12.4623 29.6932C12.8049 30.0357 12.8049 30.591 12.4623 30.9335C12.1198 31.2761 11.5645 31.2761 11.222 30.9335L8.5904 28.3019C8.24786 27.9594 8.24786 27.4041 8.5904 27.0616Z" fill="black"/>
</svg>
