<svg width="50" height="50" viewBox="0 0 50 50" fill="none" xmlns="http://www.w3.org/2000/svg">
<path d="M25 45.8332C36.5059 45.8332 45.8333 36.5058 45.8333 24.9998C45.8333 13.4939 36.5059 4.1665 25 4.1665C13.4941 4.1665 4.16667 13.4939 4.16667 24.9998C4.16667 36.5058 13.4941 45.8332 25 45.8332Z" fill="#E38769"/>
<path d="M31.6729 28.7269L29.2417 25.5832C28.5125 24.6394 28.0687 23.5061 27.9604 22.3186L27.0833 12.4998C27.0833 11.3498 26.15 10.4165 25 10.4165C23.85 10.4165 22.9167 11.3498 22.9167 12.4998L22.1229 22.6769C21.9667 24.6769 22.7812 26.6311 24.3125 27.929L28.7271 31.6728C29.5417 32.4873 30.8604 32.4873 31.6729 31.6728C32.4875 30.8603 32.4875 29.5394 31.6729 28.7269Z" fill="#894B38"/>
</svg>
