<svg width="18" height="20" viewBox="0 0 18 20" fill="none" xmlns="http://www.w3.org/2000/svg">
<g id="icons8-qr 1">
<path id="Vector" d="M2.38102 0.599976C1.17409 0.599976 0.179932 1.61623 0.179932 2.84998V6.34998C0.179932 7.58373 1.17409 8.59998 2.38102 8.59998H5.80493C7.01186 8.59998 8.00602 7.58373 8.00602 6.34998V2.84998C8.00602 1.61623 7.01186 0.599976 5.80493 0.599976H2.38102ZM12.1636 0.599976C10.9567 0.599976 9.96254 1.61623 9.96254 2.84998V6.34998C9.96254 7.58373 10.9567 8.59998 12.1636 8.59998H15.5875C16.7945 8.59998 17.7886 7.58373 17.7886 6.34998V2.84998C17.7886 1.61623 16.7945 0.599976 15.5875 0.599976H12.1636ZM2.38102 2.09998H5.80493C6.21898 2.09998 6.53863 2.42673 6.53863 2.84998V6.34998C6.53863 6.77323 6.21898 7.09998 5.80493 7.09998H2.38102C1.96697 7.09998 1.64732 6.77323 1.64732 6.34998V2.84998C1.64732 2.42673 1.96697 2.09998 2.38102 2.09998ZM12.1636 2.09998H15.5875C16.0016 2.09998 16.3212 2.42673 16.3212 2.84998V6.34998C16.3212 6.77323 16.0016 7.09998 15.5875 7.09998H12.1636C11.7496 7.09998 11.4299 6.77323 11.4299 6.34998V2.84998C11.4299 2.42673 11.7496 2.09998 12.1636 2.09998ZM3.11471 3.59998V5.59998H5.07124V3.59998H3.11471ZM12.8973 3.59998V5.59998H14.8538V3.59998H12.8973ZM2.38102 10.6C1.17409 10.6 0.179932 11.6162 0.179932 12.85V16.35C0.179932 17.5837 1.17409 18.6 2.38102 18.6H5.80493C7.01186 18.6 8.00602 17.5837 8.00602 16.35V12.85C8.00602 11.6162 7.01186 10.6 5.80493 10.6H2.38102ZM9.96254 10.6V13.35H12.6528V10.6H9.96254ZM12.6528 13.35V15.85H15.0984V13.35H12.6528ZM15.0984 13.35H17.7886V10.6H15.0984V13.35ZM15.0984 15.85V18.6H17.7886V15.85H15.0984ZM12.6528 15.85H9.96254V18.6H12.6528V15.85ZM2.38102 12.1H5.80493C6.21898 12.1 6.53863 12.4267 6.53863 12.85V16.35C6.53863 16.7732 6.21898 17.1 5.80493 17.1H2.38102C1.96697 17.1 1.64732 16.7732 1.64732 16.35V12.85C1.64732 12.4267 1.96697 12.1 2.38102 12.1ZM3.11471 13.6V15.6H5.07124V13.6H3.11471Z" fill="#2C2435"/>
</g>
</svg>
