<svg width="30" height="30" viewBox="0 0 30 30" fill="none" xmlns="http://www.w3.org/2000/svg">
<path d="M10.0001 17.3363C10.0001 16.3726 8.83758 15.8876 8.15258 16.5663L3.28633 21.3863C2.66758 22.0001 2.66758 23.0001 3.28633 23.6138L8.15258 28.4338C8.83758 29.1126 10.0001 28.6276 10.0001 27.6638V17.3363Z" fill="#D9B97A"/>
<path d="M8.75 25C8.75 25 16.6287 25 17.5 25C18.8813 25 20 23.8812 20 22.5C20 21.1187 18.8813 20 17.5 20C16.6287 20 8.75 20 8.75 20V25Z" fill="#D9B97A"/>
<path d="M25 25C26.3807 25 27.5 23.8807 27.5 22.5C27.5 21.1193 26.3807 20 25 20C23.6193 20 22.5 21.1193 22.5 22.5C22.5 23.8807 23.6193 25 25 25Z" fill="#D9B97A"/>
<path d="M21.8475 13.4338L26.7138 8.61381C27.3325 8.00006 27.3325 7.00006 26.7138 6.38631L21.8475 1.56631C21.1625 0.887561 20 1.37256 20 2.33631V5.00006H12.5C11.1187 5.00006 10 6.11881 10 7.50006C10 8.88131 11.1187 10.0001 12.5 10.0001H20V12.6638C20 13.6276 21.1625 14.1126 21.8475 13.4338Z" fill="#E4BDEA"/>
<path d="M5 10C6.38071 10 7.5 8.88071 7.5 7.5C7.5 6.11929 6.38071 5 5 5C3.61929 5 2.5 6.11929 2.5 7.5C2.5 8.88071 3.61929 10 5 10Z" fill="#E4BDEA"/>
</svg>
