<svg width="28" height="28" viewBox="0 0 28 28" fill="none" xmlns="http://www.w3.org/2000/svg">
<g id="Reject" clip-path="url(#clip0_23501_12938)">
<path id="Vector" d="M13.9998 14.0002C17.2215 14.0002 19.8332 11.3885 19.8332 8.16683C19.8332 4.94517 17.2215 2.3335 13.9998 2.3335C10.7782 2.3335 8.1665 4.94517 8.1665 8.16683C8.1665 11.3885 10.7782 14.0002 13.9998 14.0002Z" fill="#C7C6FF"/>
<path id="Vector_2" d="M16.3333 22.1667C16.3333 22.995 16.5083 23.7883 16.8117 24.5H7C5.06333 24.5 3.5 22.9367 3.5 21C3.5 19.0633 5.06333 17.5 7 17.5H18.6667C17.255 18.5617 16.3333 20.265 16.3333 22.1667Z" fill="#4BAE84"/>
<path id="Vector_3" opacity="0.35" d="M22.1668 16.3335C18.9468 16.3335 16.3335 18.9468 16.3335 22.1668C16.3335 25.3868 18.9468 28.0002 22.1668 28.0002C25.3868 28.0002 28.0002 25.3868 28.0002 22.1668C28.0002 18.9468 25.3868 16.3335 22.1668 16.3335Z" fill="#80BBE6"/>
<g id="Group 1000002758">
<path id="Vector_4" d="M25.4581 21.0034H18.8749C19.0399 20.5249 19.3121 20.0712 19.6916 19.6917C21.0611 18.3222 23.2719 18.3222 24.6414 19.6917C25.0209 20.0712 25.2931 20.5249 25.4581 21.0034Z" fill="#246AAB"/>
<path id="Vector_5" d="M24.6414 24.6414C23.2719 26.0108 21.0611 26.0108 19.6916 24.6414C19.3121 24.2619 19.0399 23.8081 18.8749 23.3297H25.4581C25.2931 23.8081 25.0209 24.2619 24.6414 24.6414Z" fill="#246AAB"/>
</g>
</g>
<defs>
<clipPath id="clip0_23501_12938">
<rect width="28" height="28" fill="white"/>
</clipPath>
</defs>
</svg>
