<svg width="22" height="22" viewBox="0 0 22 22" fill="none" xmlns="http://www.w3.org/2000/svg">
<path d="M9.39583 2.75C5.7363 2.75 2.75 5.7363 2.75 9.39583C2.75 13.0554 5.7363 16.0417 9.39583 16.0417C10.896 16.0417 12.2783 15.5343 13.3928 14.6899L17.6852 18.9814C17.7697 19.0694 17.8709 19.1397 17.9828 19.188C18.0948 19.2364 18.2152 19.262 18.3372 19.2632C18.4592 19.2645 18.5801 19.2414 18.693 19.1953C18.806 19.1492 18.9085 19.081 18.9948 18.9948C19.081 18.9085 19.1492 18.806 19.1953 18.693C19.2414 18.5801 19.2645 18.4592 19.2632 18.3372C19.262 18.2152 19.2364 18.0948 19.188 17.9828C19.1397 17.8709 19.0694 17.7697 18.9814 17.6852L14.6899 13.3928C15.5343 12.2783 16.0417 10.896 16.0417 9.39583C16.0417 5.7363 13.0554 2.75 9.39583 2.75ZM9.39583 4.58333C12.0646 4.58333 14.2083 6.7271 14.2083 9.39583C14.2083 10.6772 13.7106 11.8344 12.9014 12.6946C12.8226 12.7516 12.7534 12.8208 12.6964 12.8996C11.836 13.7099 10.6781 14.2083 9.39583 14.2083C6.7271 14.2083 4.58333 12.0646 4.58333 9.39583C4.58333 6.7271 6.7271 4.58333 9.39583 4.58333Z" fill="#19151E"/>
</svg>
