<svg width="23" height="22" viewBox="0 0 23 22" fill="none" xmlns="http://www.w3.org/2000/svg">
<g opacity="0.6">
<path d="M9.89583 2.75C6.2363 2.75 3.25 5.7363 3.25 9.39583C3.25 13.0554 6.2363 16.0417 9.89583 16.0417C11.396 16.0417 12.7783 15.5343 13.8928 14.6899L18.1852 18.9814C18.2697 19.0694 18.3709 19.1397 18.4828 19.188C18.5948 19.2364 18.7152 19.262 18.8372 19.2632C18.9592 19.2645 19.0801 19.2414 19.193 19.1953C19.306 19.1492 19.4085 19.081 19.4948 18.9948C19.581 18.9085 19.6492 18.806 19.6953 18.693C19.7414 18.5801 19.7645 18.4592 19.7632 18.3372C19.762 18.2152 19.7364 18.0948 19.688 17.9828C19.6397 17.8709 19.5694 17.7697 19.4814 17.6852L15.1899 13.3928C16.0343 12.2783 16.5417 10.896 16.5417 9.39583C16.5417 5.7363 13.5554 2.75 9.89583 2.75ZM9.89583 4.58333C12.5646 4.58333 14.7083 6.7271 14.7083 9.39583C14.7083 10.6772 14.2106 11.8344 13.4014 12.6946C13.3226 12.7516 13.2534 12.8208 13.1964 12.8996C12.336 13.7099 11.1781 14.2083 9.89583 14.2083C7.2271 14.2083 5.08333 12.0646 5.08333 9.39583C5.08333 6.7271 7.2271 4.58333 9.89583 4.58333Z" fill="#19151E"/>
</g>
</svg>
