<svg width="24" height="24" viewBox="0 0 24 24" fill="none" xmlns="http://www.w3.org/2000/svg">
<path d="M21.947 7.974C22.004 6.964 21.295 6.037 20.296 5.872C16.145 5.189 16.464 2 12 2C7.53601 2 7.85501 5.189 3.70401 5.872C2.70501 6.036 1.99601 6.963 2.05301 7.974C2.48101 15.604 5.53401 19.229 12 22C18.466 19.229 21.519 15.604 21.947 7.974Z" fill="#D2EEC3"/>
<path d="M12 11C13.1046 11 14 10.1046 14 9C14 7.89543 13.1046 7 12 7C10.8954 7 10 7.89543 10 9C10 10.1046 10.8954 11 12 11Z" fill="#2DB98A"/>
<path d="M9.5 13H14.5C15.328 13 16 13.672 16 14.5C16 15.328 15.328 16 14.5 16H9.5C8.672 16 8 15.328 8 14.5C8 13.672 8.672 13 9.5 13Z" fill="#2DB98A"/>
</svg>
