<svg width="32" height="32" viewBox="0 0 32 32" fill="none" xmlns="http://www.w3.org/2000/svg">
<circle cx="16" cy="16" r="16" fill="#EBEDF4"/>
<g clip-path="url(#clip0_23665_3828)">
<path d="M15.9961 11.625C12.6945 11.625 9.78549 13.9134 9.01374 16.912C8.98489 17.0244 9.00187 17.1437 9.06094 17.2436C9.12002 17.3435 9.21636 17.4158 9.32877 17.4447C9.44117 17.4735 9.56044 17.4565 9.66033 17.3975C9.76022 17.3384 9.83254 17.242 9.8614 17.1296C10.5264 14.5458 13.1026 12.5 15.9961 12.5C18.8895 12.5 21.4739 14.5465 22.1387 17.1296C22.1676 17.242 22.2399 17.3384 22.3398 17.3975C22.4397 17.4565 22.559 17.4735 22.6714 17.4447C22.7838 17.4158 22.8801 17.3435 22.9392 17.2436C22.9983 17.1437 23.0153 17.0244 22.9864 16.912C22.2145 13.9127 19.2976 11.625 15.9961 11.625ZM16.0006 13.9583C14.449 13.9583 13.182 15.2253 13.182 16.777C13.182 18.3287 14.449 19.5963 16.0006 19.5963C17.5523 19.5963 18.8199 18.3287 18.8199 16.777C18.8199 15.2253 17.5523 13.9583 16.0006 13.9583Z" fill="black"/>
</g>
<defs>
<clipPath id="clip0_23665_3828">
<rect width="14" height="14" fill="white" transform="translate(9 9)"/>
</clipPath>
</defs>
</svg>
