<svg width="32" height="32" viewBox="0 0 32 32" fill="none" xmlns="http://www.w3.org/2000/svg">
<circle cx="16" cy="16" r="16" fill="#EBEDF4"/>
<path d="M18.6849 15.9999C18.6849 17.4849 17.4849 18.6849 15.9999 18.6849C14.5149 18.6849 13.3149 17.4849 13.3149 15.9999C13.3149 14.5149 14.5149 13.3149 15.9999 13.3149C17.4849 13.3149 18.6849 14.5149 18.6849 15.9999Z" stroke="#3C2875" stroke-width="1.5" stroke-linecap="round" stroke-linejoin="round"/>
<path d="M15.9999 22.2025C18.6474 22.2025 21.1149 20.6425 22.8324 17.9425C23.5074 16.885 23.5074 15.1075 22.8324 14.05C21.1149 11.35 18.6474 9.79004 15.9999 9.79004C13.3524 9.79004 10.8849 11.35 9.16738 14.05C8.49238 15.1075 8.49238 16.885 9.16738 17.9425C10.8849 20.6425 13.3524 22.2025 15.9999 22.2025Z" stroke="#3C2875" stroke-width="1.5" stroke-linecap="round" stroke-linejoin="round"/>
</svg>
