<svg width="30" height="30" viewBox="0 0 30 30" fill="none" xmlns="http://www.w3.org/2000/svg">
<path opacity="0.7" d="M15 15C18.4518 15 21.25 12.2018 21.25 8.75C21.25 5.29822 18.4518 2.5 15 2.5C11.5482 2.5 8.75 5.29822 8.75 8.75C8.75 12.2018 11.5482 15 15 15Z" fill="#3AAA82"/>
<path d="M17.5 23.75C17.5 24.6375 17.6875 25.4875 18.0125 26.25H7.5C5.425 26.25 3.75 24.575 3.75 22.5C3.75 20.425 5.425 18.75 7.5 18.75H20C18.4875 19.8875 17.5 21.7125 17.5 23.75Z" fill="#DE87E0"/>
<path opacity="0.6" d="M5.9575 14.7075C7.03125 13.6338 7.3825 12.0863 7.495 11.0538C7.56 10.4475 7.05375 9.94001 6.4475 10.0063C5.415 10.1175 3.8675 10.4688 2.79375 11.5438C1.72 12.6188 1.36875 14.165 1.25625 15.1975C1.19125 15.8038 1.6975 16.3113 2.30375 16.245C3.33625 16.1325 4.88375 15.7813 5.9575 14.7075Z" fill="#DE87E0"/>
<path opacity="0.35" d="M23.75 17.5C20.3 17.5 17.5 20.3 17.5 23.75C17.5 27.2 20.3 30 23.75 30C27.2 30 30 27.2 30 23.75C30 20.3 27.2 17.5 23.75 17.5Z" fill="#D17ED2"/>
<path opacity="0.6" d="M27.0834 20H20.4168C19.9564 20 19.5834 20.3729 19.5834 20.8333V24.1667C19.5834 24.6271 19.9564 25 20.4168 25H27.0834C27.5439 25 27.9168 24.6271 27.9168 24.1667V20.8333C27.9168 20.3729 27.5439 20 27.0834 20Z" fill="#3AAA82"/>
<path opacity="0.7" d="M23.7499 24.1667C24.5553 24.1667 25.2082 23.4205 25.2082 22.5C25.2082 21.5795 24.5553 20.8333 23.7499 20.8333C22.9445 20.8333 22.2916 21.5795 22.2916 22.5C22.2916 23.4205 22.9445 24.1667 23.7499 24.1667Z" fill="#374708"/>
<path opacity="0.7" d="M26.6667 22.9167C26.8968 22.9167 27.0833 22.7301 27.0833 22.5C27.0833 22.2699 26.8968 22.0833 26.6667 22.0833C26.4365 22.0833 26.25 22.2699 26.25 22.5C26.25 22.7301 26.4365 22.9167 26.6667 22.9167Z" fill="#374708"/>
<path opacity="0.7" d="M20.8332 22.9167C21.0634 22.9167 21.2499 22.7301 21.2499 22.5C21.2499 22.2699 21.0634 22.0833 20.8332 22.0833C20.6031 22.0833 20.4166 22.2699 20.4166 22.5C20.4166 22.7301 20.6031 22.9167 20.8332 22.9167Z" fill="#374708"/>
<path d="M27.0834 25H20.4168C19.9564 25 19.5834 24.6267 19.5834 24.1667V23.75V25.4383C19.5834 25.8846 19.9326 26.2487 20.378 26.2692C22.6043 26.3717 25.2851 26.8842 26.8839 27.6529C27.3634 27.8833 27.9168 27.5404 27.9168 27.0083V24.1667C27.9168 24.6271 27.5434 25 27.0834 25Z" fill="#374708"/>
</svg>
