<svg width="48" height="48" viewBox="0 0 48 48" fill="none" xmlns="http://www.w3.org/2000/svg">
<path opacity="0.35" d="M21.6655 22.498L21.4795 22.218C20.5835 20.874 20.5835 19.124 21.4795 17.78L24.5935 13.108C25.4795 11.78 24.5255 10 22.9295 10H5.99951C3.78951 10 1.99951 11.79 1.99951 14V30C1.99951 32.21 3.78951 34 5.99951 34H19.4455C20.2635 34 20.9995 33.502 21.3015 32.742L22.4355 29.906C23.4155 27.462 23.1255 24.69 21.6655 22.498Z" fill="#499938"/>
<path d="M39.9995 28C41.1041 28 41.9995 27.1046 41.9995 26C41.9995 24.8954 41.1041 24 39.9995 24C38.8949 24 37.9995 24.8954 37.9995 26C37.9995 27.1046 38.8949 28 39.9995 28Z" fill="#3E5155"/>
<path d="M7.99951 24C9.10408 24 9.99951 23.1046 9.99951 22C9.99951 20.8954 9.10408 20 7.99951 20C6.89494 20 5.99951 20.8954 5.99951 22C5.99951 23.1046 6.89494 24 7.99951 24Z" fill="#3E5155"/>
<path d="M22.4195 29.952L22.4375 29.908C23.4155 27.462 23.1275 24.692 21.6655 22.5L21.4795 22.22C20.5835 20.876 20.5835 19.126 21.4795 17.782L23.7995 14.302C23.2215 14.124 22.6255 14 21.9995 14C18.1335 14 14.9995 17.582 14.9995 22C14.9995 26.558 18.3335 30.224 22.3655 29.99C22.3855 29.976 22.3995 29.964 22.4195 29.952Z" fill="#408D30"/>
<path opacity="0.35" d="M27.9996 30L25.5516 26.328C24.6196 24.93 24.6596 23.098 25.6536 21.744L30.1336 15.634C30.8876 14.608 32.0856 14 33.3596 14H41.9996C44.2096 14 45.9996 15.79 45.9996 18V34C45.9996 36.21 44.2096 38 41.9996 38H28.0176C26.6396 38 25.6756 36.64 26.1296 35.34L27.9996 30Z" fill="#499938"/>
<path d="M27.8716 18.7202L25.6536 21.7442C24.6596 23.0982 24.6196 24.9302 25.5516 26.3282L27.9996 30.0002L26.6916 33.7382C29.7356 32.8702 31.9996 29.7482 31.9996 26.0002C31.9996 22.7542 30.3016 19.9742 27.8716 18.7202Z" fill="#408D30"/>
</svg>
