<svg width="48" height="48" viewBox="0 0 48 48" fill="none" xmlns="http://www.w3.org/2000/svg">
<g clip-path="url(#clip0_23777_7956)">
<path d="M0 22.667V25.3337C0 37.8523 10.7453 48.0003 24 48.0003C37.2547 48.0003 48 37.8523 48 25.3337V22.667H0Z" fill="url(#paint0_linear_23777_7956)"/>
<path d="M24.0002 44.0748C36.5186 44.0748 46.6668 34.4901 46.6668 22.6668C46.6668 10.8435 36.5186 1.25879 24.0002 1.25879C11.4817 1.25879 1.3335 10.8435 1.3335 22.6668C1.3335 34.4901 11.4817 44.0748 24.0002 44.0748Z" fill="url(#paint1_linear_23777_7956)"/>
<path d="M1.3335 23.9998C1.3335 12.1771 11.4815 2.5918 24.0002 2.5918C36.5188 2.5918 46.6668 12.1771 46.6668 23.9998" stroke="url(#paint2_linear_23777_7956)" stroke-width="2" stroke-miterlimit="10"/>
<path d="M24 2.66667C35.7627 2.66667 45.3333 11.6387 45.3333 22.6667C45.3333 33.6947 35.7627 42.6667 24 42.6667C12.2373 42.6667 2.66667 33.6947 2.66667 22.6667C2.66667 11.6387 12.2373 2.66667 24 2.66667ZM24 0C10.7453 0 0 10.148 0 22.6667C0 35.1853 10.7453 45.3333 24 45.3333C37.2547 45.3333 48 35.1853 48 22.6667C48 10.148 37.2547 0 24 0Z" fill="url(#paint3_linear_23777_7956)"/>
<path d="M24.8839 10.6106L27.5999 18.6212H36.2666C36.4651 18.6214 36.6584 18.6849 36.8184 18.8025C36.9784 18.9201 37.0967 19.0856 37.1562 19.275C37.2156 19.4644 37.2132 19.6679 37.1491 19.8558C37.085 20.0437 36.9627 20.2063 36.7999 20.3199L29.8226 25.1852L32.5079 33.1172C32.5714 33.3034 32.5744 33.5049 32.5165 33.6929C32.4587 33.8809 32.3429 34.0458 32.1857 34.1641C32.0286 34.2824 31.838 34.348 31.6414 34.3516C31.4447 34.3551 31.2519 34.2964 31.0906 34.1839L23.9999 29.2412L16.9132 34.1826C16.7519 34.2951 16.5591 34.3538 16.3625 34.3502C16.1658 34.3467 15.9753 34.2811 15.8181 34.1628C15.6609 34.0445 15.5451 33.8796 15.4873 33.6916C15.4294 33.5036 15.4324 33.3021 15.4959 33.1159L18.1812 25.1839L11.1999 20.3199C11.0371 20.2063 10.9148 20.0437 10.8507 19.8558C10.7866 19.6679 10.7842 19.4644 10.8436 19.275C10.9031 19.0856 11.0214 18.9201 11.1814 18.8025C11.3414 18.6849 11.5347 18.6214 11.7332 18.6212H20.3999L23.1119 10.6106C23.1736 10.4243 23.2924 10.2623 23.4515 10.1474C23.6105 10.0325 23.8017 9.9707 23.9979 9.9707C24.1941 9.9707 24.3853 10.0325 24.5444 10.1474C24.7034 10.2623 24.8222 10.4243 24.8839 10.6106Z" fill="url(#paint4_linear_23777_7956)"/>
</g>
<defs>
<linearGradient id="paint0_linear_23777_7956" x1="0" y1="35.3337" x2="48" y2="35.3337" gradientUnits="userSpaceOnUse">
<stop stop-color="#CC6700"/>
<stop offset="0.116" stop-color="#CE7507"/>
<stop offset="0.351" stop-color="#D38C13"/>
<stop offset="0.5" stop-color="#D49417"/>
<stop offset="1" stop-color="#CC6700"/>
</linearGradient>
<linearGradient id="paint1_linear_23777_7956" x1="8.41083" y1="38.2561" x2="39.5895" y2="7.07745" gradientUnits="userSpaceOnUse">
<stop stop-color="#E07000"/>
<stop offset="0.144" stop-color="#E38309"/>
<stop offset="0.362" stop-color="#E79A15"/>
<stop offset="0.5" stop-color="#E8A219"/>
<stop offset="1" stop-color="#E07000"/>
</linearGradient>
<linearGradient id="paint2_linear_23777_7956" x1="-7.99984" y1="12.6291" x2="-6.6665" y2="12.6291" gradientUnits="userSpaceOnUse">
<stop stop-color="#CC6700"/>
<stop offset="0.116" stop-color="#CE7507"/>
<stop offset="0.351" stop-color="#D38C13"/>
<stop offset="0.5" stop-color="#D49417"/>
<stop offset="1" stop-color="#CC6700"/>
</linearGradient>
<linearGradient id="paint3_linear_23777_7956" x1="7.49467" y1="39.172" x2="40.5053" y2="6.16133" gradientUnits="userSpaceOnUse">
<stop stop-color="#F2AD00"/>
<stop offset="0.124" stop-color="#F6C43B"/>
<stop offset="0.249" stop-color="#FAD86E"/>
<stop offset="0.358" stop-color="#FDE794"/>
<stop offset="0.445" stop-color="#FEF0AB"/>
<stop offset="0.5" stop-color="#FFF3B3"/>
<stop offset="1" stop-color="#F2AD00"/>
</linearGradient>
<linearGradient id="paint4_linear_23777_7956" x1="14.9026" y1="33.2599" x2="33.0972" y2="15.0652" gradientUnits="userSpaceOnUse">
<stop stop-color="#F2AD00"/>
<stop offset="0.145" stop-color="#F6C43B"/>
<stop offset="0.29" stop-color="#FAD86E"/>
<stop offset="0.416" stop-color="#FDE794"/>
<stop offset="0.517" stop-color="#FEF0AB"/>
<stop offset="0.581" stop-color="#FFF3B3"/>
<stop offset="1" stop-color="#F2AD00"/>
</linearGradient>
<clipPath id="clip0_23777_7956">
<rect width="48" height="48" fill="white"/>
</clipPath>
</defs>
</svg>
