<svg width="64" height="65" viewBox="0 0 64 65" fill="none" xmlns="http://www.w3.org/2000/svg">
<rect y="0.5" width="64" height="64" rx="32" fill="#FFE8CD"/>
<path d="M31.5002 48.6663C40.7049 48.6663 48.1668 41.2044 48.1668 31.9997C48.1668 22.7949 40.7049 15.333 31.5002 15.333C22.2954 15.333 14.8335 22.7949 14.8335 31.9997C14.8335 41.2044 22.2954 48.6663 31.5002 48.6663Z" fill="#E38769"/>
<path d="M36.8383 34.9813L34.8933 32.4663C34.31 31.7113 33.955 30.8047 33.8683 29.8547L33.1666 21.9997C33.1666 21.0797 32.42 20.333 31.5 20.333C30.58 20.333 29.8333 21.0797 29.8333 21.9997L29.1983 30.1413C29.0733 31.7413 29.725 33.3047 30.95 34.343L34.4816 37.338C35.1333 37.9897 36.1883 37.9897 36.8383 37.338C37.49 36.688 37.49 35.6313 36.8383 34.9813Z" fill="#894B38"/>
</svg>
