<svg width="64" height="65" viewBox="0 0 64 65" fill="none" xmlns="http://www.w3.org/2000/svg">
<rect y="0.5" width="64" height="64" rx="32" fill="#FBDAD6"/>
<path d="M49.5 33C49.5 42.9396 41.4396 51 31.5 51C21.5604 51 13.5 42.9396 13.5 33C13.5 23.0604 21.5604 15 31.5 15C41.4396 15 49.5 23.0604 49.5 33Z" fill="url(#paint0_linear_23777_17123)"/>
<path d="M39.6133 24.8874C40.316 25.5901 40.316 26.7299 39.6133 27.4326L25.9326 41.1133C25.2299 41.816 24.0901 41.816 23.3874 41.1133C22.6847 40.4106 22.6847 39.2708 23.3874 38.5681L37.0681 24.8874C37.7708 24.1847 38.9106 24.1847 39.6133 24.8874Z" fill="white"/>
<path d="M39.6133 41.1133C38.9106 41.816 37.7708 41.816 37.0681 41.1133L23.3874 27.4326C22.6847 26.7299 22.6847 25.5901 23.3874 24.8874C24.0901 24.1847 25.2299 24.1847 25.9326 24.8874L39.6133 38.5681C40.316 39.2708 40.316 40.4106 39.6133 41.1133Z" fill="white"/>
<defs>
<linearGradient id="paint0_linear_23777_17123" x1="31.5" y1="51" x2="31.5" y2="15" gradientUnits="userSpaceOnUse">
<stop stop-color="#FF634D"/>
<stop offset="0.204" stop-color="#FE6464"/>
<stop offset="0.521" stop-color="#FC6581"/>
<stop offset="0.794" stop-color="#FA6694"/>
<stop offset="0.989" stop-color="#FA669A"/>
<stop offset="1" stop-color="#FA669A"/>
</linearGradient>
</defs>
</svg>
