<svg width="64" height="65" viewBox="0 0 64 65" fill="none" xmlns="http://www.w3.org/2000/svg">
<rect y="0.5" width="64" height="64" rx="32" fill="#E5F4ED"/>
<path fill-rule="evenodd" clip-rule="evenodd" d="M38.1548 29.537L30.4582 37.2337C30.2132 37.4787 29.8948 37.6003 29.5748 37.6003C29.2532 37.6003 28.9348 37.4787 28.6898 37.2337L24.8415 33.3853C24.3532 32.897 24.3532 32.1053 24.8415 31.617C25.3298 31.1287 26.1198 31.1287 26.6082 31.617L29.5748 34.582L36.3865 27.7687C36.8748 27.2803 37.6665 27.2803 38.1548 27.7687C38.6432 28.257 38.6432 29.0487 38.1548 29.537ZM31.4998 16.667C22.7698 16.667 15.6665 23.7703 15.6665 32.5003C15.6665 41.232 22.7698 48.3337 31.4998 48.3337C40.2298 48.3337 47.3332 41.232 47.3332 32.5003C47.3332 23.7703 40.2298 16.667 31.4998 16.667Z" fill="#23A26D"/>
</svg>
