<svg width="30" height="30" viewBox="0 0 30 30" fill="none" xmlns="http://www.w3.org/2000/svg">
<path d="M10.0001 17.3363C10.0001 16.3725 8.83758 15.8875 8.15258 16.5663L3.28633 21.3862C2.66758 22 2.66758 23 3.28633 23.6138L8.15258 28.4337C8.83758 29.1125 10.0001 28.6275 10.0001 27.6638V17.3363Z" fill="#E16FD0"/>
<path d="M8.75 25C8.75 25 16.6287 25 17.5 25C18.8813 25 20 23.8812 20 22.5C20 21.1187 18.8813 20 17.5 20C16.6287 20 8.75 20 8.75 20V25Z" fill="#E16FD0"/>
<path d="M25 25C26.3807 25 27.5 23.8807 27.5 22.5C27.5 21.1193 26.3807 20 25 20C23.6193 20 22.5 21.1193 22.5 22.5C22.5 23.8807 23.6193 25 25 25Z" fill="#E16FD0"/>
<path d="M21.8475 13.4337L26.7138 8.61375C27.3325 8 27.3325 7 26.7138 6.38625L21.8475 1.56625C21.1625 0.8875 20 1.3725 20 2.33625V5H12.5C11.1187 5 10 6.11875 10 7.5C10 8.88125 11.1187 10 12.5 10H20V12.6637C20 13.6275 21.1625 14.1125 21.8475 13.4337Z" fill="#FAE1C4"/>
<path d="M5 10C6.38071 10 7.5 8.88071 7.5 7.5C7.5 6.11929 6.38071 5 5 5C3.61929 5 2.5 6.11929 2.5 7.5C2.5 8.88071 3.61929 10 5 10Z" fill="#FAE1C4"/>
</svg>
