<svg width="20" height="20" viewBox="0 0 20 20" fill="none" xmlns="http://www.w3.org/2000/svg">
<path opacity="0.35" d="M9.99996 18.3334C14.6023 18.3334 18.3333 14.6024 18.3333 10C18.3333 5.39765 14.6023 1.66669 9.99996 1.66669C5.39759 1.66669 1.66663 5.39765 1.66663 10C1.66663 14.6024 5.39759 18.3334 9.99996 18.3334Z" fill="url(#paint0_linear_24359_917)"/>
<path d="M8.82168 11.1783C8.45334 10.81 6.99418 8.59668 5.79584 6.74334C5.39418 6.12251 6.12251 5.39418 6.74334 5.79501C8.59668 6.99334 10.81 8.45334 11.1783 8.82084C11.8292 9.47168 11.8292 10.5267 11.1783 11.1775C10.5275 11.8292 9.47251 11.8292 8.82168 11.1783Z" fill="#19151E"/>
<path d="M8.43506 1.81835L9.34506 3.18252C9.65673 3.65002 10.3442 3.65002 10.6567 3.18252L11.5667 1.81835C11.0576 1.72169 10.5359 1.66669 10.0001 1.66669C9.46423 1.66669 8.94256 1.72169 8.43506 1.81835Z" fill="#19151E"/>
<defs>
<linearGradient id="paint0_linear_24359_917" x1="-9.04449" y1="11.2931" x2="21.608" y2="3.45816" gradientUnits="userSpaceOnUse">
<stop stop-color="#0D6494"/>
<stop offset="1" stop-color="#714BDB"/>
</linearGradient>
</defs>
</svg>
