<svg width="20" height="20" viewBox="0 0 20 20" fill="none" xmlns="http://www.w3.org/2000/svg">
<g id="icons8-info 1">
<path id="Vector" opacity="0.35" d="M9.99984 18.3327C14.6022 18.3327 18.3332 14.6017 18.3332 9.99935C18.3332 5.39698 14.6022 1.66602 9.99984 1.66602C5.39746 1.66602 1.6665 5.39698 1.6665 9.99935C1.6665 14.6017 5.39746 18.3327 9.99984 18.3327Z" fill="#39A062"/>
<path id="Vector_2" d="M9.1665 14.166V9.99935C9.1665 9.53935 9.53984 9.16602 9.99984 9.16602C10.4598 9.16602 10.8332 9.53935 10.8332 9.99935V14.166C10.8332 14.626 10.4598 14.9993 9.99984 14.9993C9.53984 14.9993 9.1665 14.626 9.1665 14.166Z" fill="#39A062"/>
<path id="Vector_3" d="M10 7.5C10.6904 7.5 11.25 6.94036 11.25 6.25C11.25 5.55964 10.6904 5 10 5C9.30964 5 8.75 5.55964 8.75 6.25C8.75 6.94036 9.30964 7.5 10 7.5Z" fill="#39A062"/>
</g>
</svg>
