<svg width="49" height="48" viewBox="0 0 49 48" fill="none" xmlns="http://www.w3.org/2000/svg">
<path d="M40.4004 18H8.40039C6.19039 18 4.40039 19.79 4.40039 22V38C4.40039 40.21 6.19039 42 8.40039 42H40.4004C42.6104 42 44.4004 40.21 44.4004 38V22C44.4004 19.79 42.6104 18 40.4004 18Z" fill="#B3DDE7"/>
<path d="M9.91445 18L36.6425 12.094C37.1125 11.99 37.5805 11.988 38.0305 12.048L35.7965 8.05205C34.7185 6.12405 32.2805 5.43405 30.3525 6.51205L9.81445 18H9.91445Z" fill="#B3DDE7"/>
<path opacity="0.35" d="M24.4007 38.3332C29.0031 38.3332 32.734 34.6022 32.734 29.9998C32.734 25.3975 29.0031 21.6665 24.4007 21.6665C19.7983 21.6665 16.0674 25.3975 16.0674 29.9998C16.0674 34.6022 19.7983 38.3332 24.4007 38.3332Z" fill="#528F3F"/>
<path d="M28.5671 29.1667H26.0671C25.6071 29.1667 25.2337 28.7933 25.2337 28.3333V25.8333C25.2337 25.3733 24.8604 25 24.4004 25C23.9404 25 23.5671 25.3733 23.5671 25.8333V28.3333C23.5671 28.7933 23.1937 29.1667 22.7337 29.1667H20.2337C19.7737 29.1667 19.4004 29.54 19.4004 30C19.4004 30.46 19.7737 30.8333 20.2337 30.8333H22.7337C23.1937 30.8333 23.5671 31.2067 23.5671 31.6667V34.1667C23.5671 34.6267 23.9404 35 24.4004 35C24.8604 35 25.2337 34.6267 25.2337 34.1667V31.6667C25.2337 31.2067 25.6071 30.8333 26.0671 30.8333H28.5671C29.0271 30.8333 29.4004 30.46 29.4004 30C29.4004 29.54 29.0271 29.1667 28.5671 29.1667Z" fill="#528F3F"/>
<path d="M38.4004 32C39.505 32 40.4004 31.1046 40.4004 30C40.4004 28.8954 39.505 28 38.4004 28C37.2958 28 36.4004 28.8954 36.4004 30C36.4004 31.1046 37.2958 32 38.4004 32Z" fill="#528F3F"/>
<path d="M10.4004 32C11.505 32 12.4004 31.1046 12.4004 30C12.4004 28.8954 11.505 28 10.4004 28C9.29582 28 8.40039 28.8954 8.40039 30C8.40039 31.1046 9.29582 32 10.4004 32Z" fill="#528F3F"/>
<path d="M40.4001 18C41.0241 18 41.6081 18.156 42.1341 18.41L41.4101 15.138C40.9341 12.98 38.7981 11.618 36.6421 12.096L9.91406 18H40.4001Z" fill="#528F3F"/>
</svg>
