<svg width="25" height="24" viewBox="0 0 25 24" fill="none" xmlns="http://www.w3.org/2000/svg">
<path d="M12.4999 2C10.7458 2 9.28514 3.31072 9.03998 5H3.74994C3.65056 4.99859 3.55188 5.01696 3.45966 5.05402C3.36743 5.09108 3.28349 5.1461 3.21271 5.21588C3.14194 5.28566 3.08573 5.36882 3.04737 5.46051C3.00901 5.5522 2.98926 5.65061 2.98926 5.75C2.98926 5.84939 3.00901 5.9478 3.04737 6.03949C3.08573 6.13118 3.14194 6.21434 3.21271 6.28412C3.28349 6.3539 3.36743 6.40892 3.45966 6.44598C3.55188 6.48304 3.65056 6.50141 3.74994 6.5H4.8183L6.07806 19.5146C6.21506 20.9311 7.39285 22 8.81635 22H16.1835C17.607 22 18.7843 20.9311 18.9218 19.5146L20.1816 6.5H21.2499C21.3493 6.50141 21.448 6.48304 21.5402 6.44598C21.6324 6.40892 21.7164 6.3539 21.7872 6.28412C21.8579 6.21434 21.9141 6.13118 21.9525 6.03949C21.9909 5.9478 22.0106 5.84939 22.0106 5.75C22.0106 5.65061 21.9909 5.5522 21.9525 5.46051C21.9141 5.36882 21.8579 5.28566 21.7872 5.21588C21.7164 5.1461 21.6324 5.09108 21.5402 5.05402C21.448 5.01696 21.3493 4.99859 21.2499 5H15.9599C15.7147 3.31072 14.2541 2 12.4999 2ZM12.4999 3.5C13.4395 3.5 14.2103 4.13408 14.4306 5H10.5693C10.7896 4.13408 11.5604 3.5 12.4999 3.5ZM10.2499 9C10.6639 9 10.9999 9.3355 10.9999 9.75V17.25C10.9999 17.6645 10.6639 18 10.2499 18C9.83594 18 9.49994 17.6645 9.49994 17.25V9.75C9.49994 9.3355 9.83594 9 10.2499 9ZM14.7499 9C15.1639 9 15.4999 9.3355 15.4999 9.75V17.25C15.4999 17.6645 15.1639 18 14.7499 18C14.3359 18 13.9999 17.6645 13.9999 17.25V9.75C13.9999 9.3355 14.3359 9 14.7499 9Z" fill="#6F5B86"/>
</svg>
