<svg width="30" height="30" viewBox="0 0 30 30" fill="none" xmlns="http://www.w3.org/2000/svg">
<path opacity="0.35" d="M7.5 20C5.42875 20 3.75 18.3212 3.75 16.25V7.5C3.75 5.42875 5.42875 3.75 7.5 3.75H22.5C24.5712 3.75 26.25 5.42875 26.25 7.5V16.25C26.25 18.3212 24.5712 20 22.5 20H7.5Z" fill="#39A2DB"/>
<path d="M8.125 8.75C9.85089 8.75 11.25 7.35089 11.25 5.625C11.25 3.89911 9.85089 2.5 8.125 2.5C6.39911 2.5 5 3.89911 5 5.625C5 7.35089 6.39911 8.75 8.125 8.75Z" fill="#2C594E"/>
<path d="M17.4113 10H6.25C4.86875 10 3.75 11.1187 3.75 12.5V26.1125C3.75 26.7975 4.2425 27.4187 4.925 27.4912C5.65875 27.57 6.30125 27.0412 6.38125 26.325L7.03875 20.4125C7.06375 20.1787 7.2625 20 7.5 20C7.7375 20 7.93625 20.1787 7.9625 20.4137L8.6125 26.2662C8.685 26.9162 9.1975 27.4587 9.85 27.4975C10.6163 27.5425 11.25 26.9362 11.25 26.1812V14.1362C11.25 13.8125 11.4887 13.5375 11.8087 13.4913L17.5387 12.6725C18.1862 12.58 18.7163 12.0575 18.7475 11.405C18.785 10.635 18.1725 10 17.4113 10Z" fill="#2C594E"/>
</svg>
