<svg width="40" height="40" viewBox="0 0 40 40" fill="none" xmlns="http://www.w3.org/2000/svg">
<rect width="40" height="40" rx="20" fill="#F3F1F6"/>
<path d="M28 14H12C10.895 14 10 14.895 10 16V24C10 25.105 10.895 26 12 26H28C29.105 26 30 25.105 30 24V16C30 14.895 29.105 14 28 14Z" fill="#F5E0AA"/>
<path d="M20 24C21.933 24 23.5 22.2091 23.5 20C23.5 17.7909 21.933 16 20 16C18.067 16 16.5 17.7909 16.5 20C16.5 22.2091 18.067 24 20 24Z" fill="#8E9A58"/>
<path d="M27 21C27.5523 21 28 20.5523 28 20C28 19.4477 27.5523 19 27 19C26.4477 19 26 19.4477 26 20C26 20.5523 26.4477 21 27 21Z" fill="#8E9A58"/>
<path d="M13 21C13.5523 21 14 20.5523 14 20C14 19.4477 13.5523 19 13 19C12.4477 19 12 19.4477 12 20C12 20.5523 12.4477 21 13 21Z" fill="#8E9A58"/>
</svg>
