<svg width="31" height="30" viewBox="0 0 31 30" fill="none" xmlns="http://www.w3.org/2000/svg">
<path d="M26.125 22.5C26.1038 22.5 25.8787 22.5 25.5 22.5V11.25H25.7638C26.9988 11.25 28 10.2487 28 9.01375C28 8.09875 27.4438 7.2775 26.5938 6.9375L17.1562 3.1625C16.0925 2.7375 14.905 2.7375 13.8413 3.1625L4.40375 6.9375C3.55625 7.2775 3 8.1 3 9.01375C3 10.2487 4.00125 11.25 5.23625 11.25H5.5V22.5C5.12125 22.5 4.89625 22.5 4.875 22.5C3.84 22.5 3 23.34 3 24.375C3 25.41 3.84 26.25 4.875 26.25C5.095 26.25 25.905 26.25 26.125 26.25C27.16 26.25 28 25.41 28 24.375C28 23.34 27.16 22.5 26.125 22.5Z" fill="#FDDFA4"/>
<path d="M26.125 22.5C26.345 22.5 26.5538 22.545 26.75 22.615V11.0112C26.4513 11.1587 26.12 11.25 25.7638 11.25H23V22.5C24.8387 22.5 26.0725 22.5 26.125 22.5Z" fill="#3D72A4"/>
<path d="M4.875 22.5C4.9275 22.5 6.16125 22.5 8 22.5V11.25H5.23625C4.88 11.25 4.54875 11.1587 4.25 11.0112V22.615C4.44625 22.545 4.655 22.5 4.875 22.5Z" fill="#3D72A4"/>
<path d="M18.4725 18.3563C18.4725 15.1188 14.8987 15.5613 14.8987 13.8738C14.8987 12.88 15.68 12.775 15.95 12.775C16.2162 12.775 16.4525 12.8388 16.6525 12.9288C17.1225 13.1413 17.68 12.9438 17.9775 12.5225C18.3587 11.9825 18.1612 11.2238 17.5587 10.9525C17.2287 10.8038 16.8162 10.6838 16.3162 10.6363V10.1663C16.3162 9.73376 15.965 9.38251 15.5325 9.38251C15.1 9.38251 14.7487 9.73376 14.7487 10.1663V10.8013C13.4375 11.2388 12.585 12.4388 12.585 13.975C12.585 17.3725 16.115 16.7588 16.115 18.525C16.115 18.865 15.9537 19.6063 15.0787 19.6063C14.69 19.6063 14.3537 19.4963 14.08 19.3538C13.6162 19.1113 13.04 19.29 12.7437 19.7225L12.7125 19.7688C12.37 20.2688 12.5087 20.9688 13.035 21.2675C13.4775 21.5188 14.0187 21.7138 14.6725 21.7825V22.3325C14.6725 22.765 15.0237 23.1163 15.4562 23.1163C15.8887 23.1163 16.24 22.765 16.24 22.3325V21.6413C17.6912 21.1975 18.4725 19.875 18.4725 18.3563Z" fill="#3D72A4"/>
</svg>
