<svg width="40" height="40" viewBox="0 0 40 40" fill="none" xmlns="http://www.w3.org/2000/svg">
<path d="M18.3333 33.3333C25.6971 33.3333 31.6667 27.3638 31.6667 20C31.6667 12.6362 25.6971 6.66667 18.3333 6.66667C10.9695 6.66667 5 12.6362 5 20C5 27.3638 10.9695 33.3333 18.3333 33.3333Z" fill="#C2C1FF"/>
<path d="M22.2967 22.8083C22.2967 18.4917 17.5317 19.0817 17.5317 16.8317C17.5317 15.5067 18.5733 15.3667 18.9333 15.3667C19.2883 15.3667 19.6033 15.4517 19.87 15.5717C20.4967 15.855 21.24 15.5917 21.6367 15.03C22.145 14.31 21.8817 13.2983 21.0783 12.9367C20.6383 12.7383 20.0883 12.5783 19.4217 12.515V11.8883C19.4217 11.3117 18.9533 10.8433 18.3767 10.8433C17.8 10.8433 17.3317 11.3117 17.3317 11.8883V12.735C15.5833 13.3183 14.4467 14.9183 14.4467 16.9667C14.4467 21.4967 19.1533 20.6783 19.1533 23.0333C19.1533 23.4867 18.9383 24.475 17.7717 24.475C17.2533 24.475 16.805 24.3283 16.44 24.1383C15.8217 23.815 15.0533 24.0533 14.6583 24.63L14.6167 24.6917C14.16 25.3583 14.345 26.2917 15.0467 26.69C15.6367 27.025 16.3583 27.285 17.23 27.3767V28.11C17.23 28.6867 17.6983 29.155 18.275 29.155C18.8517 29.155 19.32 28.6867 19.32 28.11V27.1883C21.255 26.5967 22.2967 24.8333 22.2967 22.8083Z" fill="#0055CC"/>
<path d="M23.3333 6.66667C22.4783 6.66667 21.6433 6.755 20.8333 6.90833C27.0017 8.08 31.6667 13.4917 31.6667 20C31.6667 26.5083 27.0017 31.92 20.8333 33.0917C21.6433 33.245 22.4783 33.3333 23.3333 33.3333C30.6967 33.3333 36.6667 27.3633 36.6667 20C36.6667 12.6367 30.6967 6.66667 23.3333 6.66667Z" fill="#0055CC"/>
</svg>
