<svg width="52" height="52" viewBox="0 0 52 52" fill="none" xmlns="http://www.w3.org/2000/svg">
<g filter="url(#filter0_d_23501_12907)">
<path d="M2.5 11C2.5 5.75329 6.75329 1.5 12 1.5H40C45.2467 1.5 49.5 5.75329 49.5 11V39C49.5 44.2467 45.2467 48.5 40 48.5H12C6.75329 48.5 2.5 44.2467 2.5 39V11Z" stroke="#F3F1F6" shape-rendering="crispEdges"/>
<path d="M20.7503 22.6667C23.0055 22.6667 24.8337 20.8385 24.8337 18.5833C24.8337 16.3282 23.0055 14.5 20.7503 14.5C18.4952 14.5 16.667 16.3282 16.667 18.5833C16.667 20.8385 18.4952 22.6667 20.7503 22.6667Z" fill="#B1B0FB"/>
<path d="M31.2503 22.6667C33.5055 22.6667 35.3337 20.8385 35.3337 18.5833C35.3337 16.3282 33.5055 14.5 31.2503 14.5C28.9952 14.5 27.167 16.3282 27.167 18.5833C27.167 20.8385 28.9952 22.6667 31.2503 22.6667Z" fill="#B1B0FB"/>
<path d="M33.583 27.3335C33.3917 27.3335 18.6077 27.3335 18.4163 27.3335C16.1612 27.3335 14.333 29.1617 14.333 31.4168C14.333 33.672 16.1612 35.5002 18.4163 35.5002C18.6077 35.5002 33.3917 35.5002 33.583 35.5002C35.8382 35.5002 37.6663 33.672 37.6663 31.4168C37.6663 29.1617 35.8382 27.3335 33.583 27.3335Z" fill="#4BAE84"/>
</g>
<defs>
<filter id="filter0_d_23501_12907" x="0" y="0" width="52" height="52" filterUnits="userSpaceOnUse" color-interpolation-filters="sRGB">
<feFlood flood-opacity="0" result="BackgroundImageFix"/>
<feColorMatrix in="SourceAlpha" type="matrix" values="0 0 0 0 0 0 0 0 0 0 0 0 0 0 0 0 0 0 127 0" result="hardAlpha"/>
<feOffset dy="1"/>
<feGaussianBlur stdDeviation="1"/>
<feComposite in2="hardAlpha" operator="out"/>
<feColorMatrix type="matrix" values="0 0 0 0 0.0627451 0 0 0 0 0.0941176 0 0 0 0 0.156863 0 0 0 0.05 0"/>
<feBlend mode="normal" in2="BackgroundImageFix" result="effect1_dropShadow_23501_12907"/>
<feBlend mode="normal" in="SourceGraphic" in2="effect1_dropShadow_23501_12907" result="shape"/>
</filter>
</defs>
</svg>
