<svg width="24" height="24" viewBox="0 0 24 24" fill="none" xmlns="http://www.w3.org/2000/svg">
<g clip-path="url(#clip0_24170_2893)">
<path opacity="0.35" d="M12 22C17.5228 22 22 17.5228 22 12C22 6.47715 17.5228 2 12 2C6.47715 2 2 6.47715 2 12C2 17.5228 6.47715 22 12 22Z" fill="#3F8CFF"/>
<path d="M14 21.763V17.723C13.397 19.178 12.626 20 12 20C10.863 20 9.249 17.303 9.028 13H14V12.736C14 12.074 14.246 11.474 14.64 11H9.028C9.249 6.697 10.863 4 12 4C13.109 4 14.666 6.567 14.949 10.682C15.431 10.263 16.053 10 16.74 10C16.791 10 16.839 10.012 16.889 10.015C16.7 7.99 16.242 6.204 15.56 4.846C17.902 6.017 19.591 8.298 19.93 11H18.866L21.807 13.941C21.932 13.313 22 12.664 22 12C22 6.486 17.514 2 12 2C6.486 2 2 6.486 2 12C2 17.514 6.486 22 12 22C12.686 22 13.356 21.93 14.004 21.798C14.003 21.786 14 21.775 14 21.763ZM4.069 13H7.023C7.134 15.442 7.647 17.577 8.439 19.154C6.097 17.983 4.409 15.701 4.069 13ZM7.024 11H4.069C4.408 8.299 6.097 6.017 8.439 4.846C7.648 6.423 7.134 8.558 7.024 11Z" fill="#2E3787"/>
<path d="M23.55 18.513L17.254 12.217C16.792 11.754 16 12.082 16 12.736V21.763C16 22.361 16.662 22.72 17.164 22.396L19.024 21.191L20.17 23.423C20.438 23.945 21.079 24.151 21.601 23.883C22.123 23.615 22.329 22.974 22.061 22.452L20.934 20.261L23.175 19.783C23.759 19.658 23.973 18.935 23.55 18.513Z" fill="#2E3787"/>
</g>
<defs>
<clipPath id="clip0_24170_2893">
<rect width="24" height="24" fill="white"/>
</clipPath>
</defs>
</svg>
